<?xml version="1.0" encoding="utf-8"?>
<!-- Generator: Adobe Illustrator 19.1.0, SVG Export Plug-In . SVG Version: 6.00 Build 0)  -->
<svg version="1.1" id="Layer_1" xmlns="http://www.w3.org/2000/svg" xmlns:xlink="http://www.w3.org/1999/xlink" x="0px" y="0px"
	 viewBox="0 0 576 576" style="enable-background:new 0 0 576 576;" xml:space="preserve">
<style type="text/css">
	.st0{fill:#1D4F3F;}
</style>
<g>
	<g>
		<g>
			<g>
				<g>
					<path class="st0" d="M445,488.6c1.8-0.9-1.3-3.8-1.5-4.6C441.5,486.7,445.7,489.4,445,488.6z"/>
					<polygon class="st0" points="423.9,514.9 423.5,513.2 421.7,519.3 					"/>
					<path class="st0" d="M397.8,530.9c3,2.4,5.3,0.7,7.5-1.6c2.2-2.3,4.4-5.3,7.4-5.7l1.6,0.9l-0.9-6.2
						C408.4,522.6,402.9,530.3,397.8,530.9z"/>
					<path class="st0" d="M376.3,525.1c2.2,2-1.9,3.7,3.7-1c-0.5-0.1-0.6-0.2-0.9-0.3C378.5,524.2,377.7,524.6,376.3,525.1z"/>
					<path class="st0" d="M379,523.9C381.7,522.2,376.1,522.8,379,523.9L379,523.9z"/>
					<path class="st0" d="M367,532l2.5-4.1c-1.5-1.1-4.9,0.3-4.3-1.4C362.1,529.6,363.6,530.7,367,532z"/>
					<path class="st0" d="M365.8,538.4l1.5-1.9C366.6,536.1,366,536.1,365.8,538.4z"/>
					<path class="st0" d="M370.3,532.5l-3.1,4c1.1,0.8,2.2,2.8,1.5-1.7C369.4,536.9,369.3,534.7,370.3,532.5z"/>
					<path class="st0" d="M373.1,532.2c2.8,0.3,5.9-0.2,3.4,3.9c3.3-2.3,4.1-4.4,3.3-5.4C378.9,529.8,376.4,530,373.1,532.2z"/>
					<path class="st0" d="M400.1,538l3.8,0.2l1.2-3.5C404.6,536.5,398.9,536.2,400.1,538z"/>
					<path class="st0" d="M343.4,538.9c0.3,1.5,2.6,3.3,3.6,5l1.8-2.7c-0.9-0.2-2-0.3-3-0.6C344.8,540.4,343.9,539.9,343.4,538.9z"
						/>
					<path class="st0" d="M347,543.9c0,0-0.7,1-1.4,2c-0.7,1-1.4,1.9-1.4,1.9C347.6,546.8,347.8,545.3,347,543.9z"/>
					<path class="st0" d="M368.6,545.8c0,0,1.1-2.1,2.2-4.2c1.1-2.1,2.2-4.2,2.2-4.2s-1.4,2.3-2.8,4.5c-1.4,2.3-2.9,4.5-2.9,4.5
						L368.6,545.8z"/>
					<path class="st0" d="M331,542.5c0,0,0.2-0.9,0.4-1.9c0.2-1,0.4-1.9,0.4-1.9s-0.4,1.5-0.8,2.9c-0.5,1.5-1,2.9-1,2.9
						s0.2-0.5,0.5-1C330.8,543,331,542.5,331,542.5z"/>
					<path class="st0" d="M323.9,544.1c0.5-1.5,0-2.7-0.4-3.8c-0.5-1.1-0.8-2-0.3-2.9c-1.7,0.6-3.5,3.1-5.4,5.2
						C319.8,541.4,321.5,541.8,323.9,544.1z"/>
					<path class="st0" d="M314.5,545.7c0.5-0.3,1.1-0.7,1.6-1.3c0.5-0.5,1.1-1.2,1.7-1.8C316.8,543.2,315.8,544.1,314.5,545.7z"/>
					<path class="st0" d="M337.8,549.1c-0.5-0.8-1.7-3-3.8-3.5c0,0,0.6,1,1.2,1.9c0.6,0.9,1.2,1.9,1.2,1.9
						C336.8,549.3,337.3,549.2,337.8,549.1z"/>
					<path class="st0" d="M336.5,549.5l-0.1-0.1c-1.5,0.3-2.5,0.4-3,0.5C333.8,549.9,334.7,549.8,336.5,549.5z"/>
					<path class="st0" d="M338.1,549c-0.1,0-0.2,0-0.4,0.1C338,549.5,338.1,549.6,338.1,549z"/>
					<path class="st0" d="M356.1,547.6c-0.7,1.6-2,3.6-2.4,5.2c-0.4,1.7,0.1,3.2,3.3,3.7C357.6,553.1,354,552.4,356.1,547.6z"/>
					<path class="st0" d="M341.5,553.6c0,0,1.1-0.1,2.2-0.2c1.1-0.1,2.2-0.3,2.2-0.3c-0.5-1-1.8-2.3-1.1-3.8c0,0-0.8,1.1-1.7,2.2
						C342.3,552.5,341.5,553.6,341.5,553.6z"/>
					<path class="st0" d="M339.9,555.5c0,0,0.4-0.5,0.8-1c0.4-0.5,0.8-1,0.8-1s-0.4,0-0.8,0.1c-0.4,0-0.8,0.1-0.8,0.1L339.9,555.5z"
						/>
					<path class="st0" d="M320.8,549.9c-1.6,1.9-3.5,1.9-5.7,2.1c2.3,1,4.6,1.6,6.8,1.5C322.2,552.2,323,549.8,320.8,549.9z"/>
					<path class="st0" d="M328.4,550.7c-0.1,0.1-0.2,0.2-0.3,0.3C328.3,551.3,328.5,551.4,328.4,550.7z"/>
					<path class="st0" d="M291.7,548.2c0.1,0.3,0.2,0.6,0.2,0.8c0.1-0.2,0.2-0.5,0.2-0.7L291.7,548.2z"/>
					<path class="st0" d="M322.3,554.3c0.8,0.4,1.5,0.3,2.1,0c0.5-0.4,1-1,1.4-1.7c-1.1,0.5-2.4,0.8-3.8,0.9
						C321.8,554.2,321.7,554.6,322.3,554.3z"/>
					<path class="st0" d="M308.4,547c0.8,1,1.8,1.9,2.8,2.7C310.5,548.2,308.9,545.9,308.4,547z"/>
					<path class="st0" d="M327.5,549.9c0.1-0.1,0.1-0.2,0.2-0.2C327.1,548.8,327.2,549.2,327.5,549.9z"/>
					<path class="st0" d="M327.5,549.9c-0.7,0.7-1.2,1.8-1.8,2.8c0.9-0.4,1.7-1,2.4-1.7C327.9,550.7,327.6,550.3,327.5,549.9z"/>
					<path class="st0" d="M278,573.3c1.3-3.8,7.7-6.1,11.7-0.9c2.7-1,3.9-4.8,4.1-9.4c0.2-4.6-0.5-9.9-1.8-13.9
						c-0.5,1.6-0.8,3.2-6.1,4.5c1.2,2.5,9.7,7.2,4.9,9.9c-6.9,0.6-5-2.5-7.7-5.2c1.6,5.4-9.8,5.2-10.1,12.5c0,0,1.6-0.3,3.2-0.6
						c1.6-0.3,3.2-0.6,3.2-0.6C279.1,570.6,276.7,571.9,278,573.3z"/>
					<path class="st0" d="M300.7,551.2l1.9-0.2c-2-1.1-3.2-2.9-5.4-6.5c-3.5,1.3-4.5,2.5-5,3.8c0,0,2.3,0.6,4.7,1.2
						c2.3,0.6,4.6,1.1,4.6,1.1L300.7,551.2z"/>
					<path class="st0" d="M310.7,552.3c-0.9,2-2.5,3.4-3.7,4.8c-1.2,1.4-1.9,3-0.8,5.5c2.8,0.2,3.9-0.6,4.7-1.6c0.8-1,1.3-2.2,3-3.1
						c-4.3,0.1-3.6-0.4-2.6-1.4c1-0.9,2.3-2.3-0.5-3.8c0.8-0.3,1.6-0.4,2.4-0.5c0.7-0.1,1.4-0.2,2.1-0.2c-1.4-0.6-2.7-1.4-3.9-2.3
						c0.1,0.1,0.1,0.2,0.2,0.3l0,0c0,0,0,0.1,0,0.1c0.3,0.6,0.4,0.9,0,0.6c0,0-0.1,0.1-0.2,0.1C311.1,551.2,310.9,551.7,310.7,552.3
						c-2.3-1.2-0.2-1.2,0.6-1.6c0.1-0.2,0.1-0.4,0.2-0.6c0,0,0,0,0-0.1c0,0-0.5,0.1-1.3,0.2c-0.8,0.1-1.8,0.3-2.9,0.4
						c-2.2,0.3-4.5,0.5-4.5,0.5C304.4,552,306.8,552.3,310.7,552.3z"/>
					<path class="st0" d="M355.9,567.1c-0.4-0.2-0.5-0.5-0.7-0.8C354.9,567,354.8,567.4,355.9,567.1z"/>
					<path class="st0" d="M351.3,566.1c0.4-0.8,0.4-2.6,2.6-3c2.3,0.5,0.8,1.9,1.4,3.2c0.9-1.6,3.2-4.7-1.5-5l-0.4,0.8
						c-2,0-4.7-0.8-6.6-1.8c-2-1-3.3-2.1-3.2-2.5C345.8,561.1,347.5,563.4,351.3,566.1z"/>
					<path class="st0" d="M329,563.1c0,0-1.6,0.7-3.4,1.4c-0.9,0.3-1.8,0.6-2.4,0.8c-0.7,0.2-1.1,0.4-1.1,0.4s0.2,0.2,0.6,0.6
						c0.4,0.3,0.8,0.8,1.3,1.2c1,0.9,2,1.8,2,1.8l-0.3-2.2c2.1,0.3,2.9-0.3,3.2-1.1C329.1,565.1,328.8,564,329,563.1z"/>
					<path class="st0" d="M291.3,545.9l2-4.2c0,0-1.5,1.3-2.9,2.7c-1.5,1.3-2.9,2.6-2.9,2.6L291.3,545.9z"/>
					<polygon class="st0" points="281.1,544.2 282.4,540.5 279.2,542.2 					"/>
					<path class="st0" d="M303.4,284.1l-2.8,1.1C302,284.9,302.8,284.5,303.4,284.1z"/>
					<path class="st0" d="M323.7,283.3l0.3-2C323.1,282.4,322.8,283.3,323.7,283.3z"/>
					<path class="st0" d="M141.8,398.8c4.2-2.3,10.2-4.1,5.8-4.7l-4.4,0C143.7,396.2,142.9,397.6,141.8,398.8z"/>
					<path class="st0" d="M234.2,270.1c-0.5-0.3-0.9-0.6-1.4-0.9c-0.3,1.7-0.6,3.3-0.9,4.7C232.6,272.7,233.4,271.4,234.2,270.1z"/>
					<path class="st0" d="M230.9,252.2l5.6,1.2C235.1,252.8,233.3,252.4,230.9,252.2z"/>
					<path class="st0" d="M198.7,267.4c0,0-1.2,0.7-2.4,1.3c-1.2,0.6-2.5,1.3-2.5,1.3C198.7,272.3,197.5,269.2,198.7,267.4z"/>
					<path class="st0" d="M188.2,509.2c-1.1-2.9-2.4-4.6-3.6-5.9C185.5,507.1,185.5,511.6,188.2,509.2z"/>
					<path class="st0" d="M309.3,238c-1.2,0.8-1.8,1.7-1.7,2.7C309,239.9,309.7,239,309.3,238z"/>
					<path class="st0" d="M179,498.7c0,0.6,0.2,1.1,0.4,1.6c1.9,0.6,3.7,1.3,5.3,3C184,500.4,182.9,498,179,498.7z"/>
					<path class="st0" d="M306.4,6.6c0.3,0.2,0.6,0.3,0.8,0.5C307.4,6.5,307,6.5,306.4,6.6z"/>
					<path class="st0" d="M404.5,58.1c-1,0.1-2.6-0.1-4.1-0.2C401.1,58.2,402.3,58.4,404.5,58.1z"/>
					<path class="st0" d="M242.6,531.7C244.7,532.1,243.1,531.3,242.6,531.7L242.6,531.7z"/>
					<path class="st0" d="M247.4,551.2c-0.6,0.3-1.1,0.8-1.5,1.8C246.4,552,246.9,551.4,247.4,551.2z"/>
					<path class="st0" d="M145.5,502.6c0-0.1-0.1-0.1-0.1-0.2C145.1,503.5,145.2,503.3,145.5,502.6z"/>
					<path class="st0" d="M245,534.5c-0.6-0.8-1.3-1.5-2.1-2.1C243.2,532.9,243.8,533.6,245,534.5z"/>
					<path class="st0" d="M245.2,532.5c0.6,0.4,1.1,0.7,1.6,1C247.3,532.8,247.2,532.3,245.2,532.5z"/>
					<path class="st0" d="M239.8,531c1.2,0.3,2.1,0.9,3.1,1.5c-0.3-0.4-0.4-0.7-0.2-0.8C242,531.5,241.2,531.3,239.8,531z"/>
					<path class="st0" d="M138.4,105.8c0.2-0.1,0.3-0.2,0.6-0.3c-0.3-1.5-0.5-2-0.6-1.8C138.3,103.8,138.3,104.7,138.4,105.8z"/>
					<path class="st0" d="M121.7,329.4c0,0.1,0,0.2,0,0.4c0.1-0.1,0.2-0.2,0.3-0.2L121.7,329.4z"/>
					<path class="st0" d="M124.5,319.9c1,3.2,1,5.2,0.5,6.5c-0.5,1.4-1.7,2.1-2.9,3.1c0,0,3,1.1,6,2.3c3,1.2,6,2.4,6,2.4
						s-2.5-3.4-4.8-7C126.7,323.6,124.5,319.9,124.5,319.9z"/>
					<path class="st0" d="M257.5,281.1c0,0,1.4,1.2,2.7,2.4c1.4,1.2,2.8,2.4,2.8,2.4c-8.4,5.2-13.7,1.9-8.7,8.4
						c0.8-3.3,2.7-4.8,5.2-5.4c2.5-0.6,5.5-0.3,8.5-0.1c6.1,0.5,12.4,0.8,13.4-6c0,0,1,0.8,1.9,1.6c1,0.8,2,1.6,2,1.6
						c-1.2-0.2-1.5,0.6-2.6,0.3c3.8,3.6,5.6,1.3,7.6-1.7c2-2.9,4.2-6.4,9.4-5.3c3.6,1.1,6.2,3,3.7,4.6c0,0,2.1-0.8,4.1-1.7
						c1-0.4,2.1-0.9,2.8-1.2c0.8-0.3,1.3-0.6,1.3-0.6c2.4,0.1,2,2.5-0.5,2.4c0,0,0.8-0.1,2-0.3c1.2-0.2,2.8-0.4,4.4-0.7
						c1.6-0.3,3.2-0.6,4.4-0.8c1.2-0.3,2-0.4,2-0.4l0,0.4c0.8-1.2,2.1-2.7,3.4-4.2c1.3-1.5,2.6-2.9,3.5-3.8c3.5,1.4-1.3,1.7-0.2,3.2
						c0,0,0.4-0.3,1-0.7c0.6-0.4,1.4-1,2.2-1.6c1.6-1.2,3.1-2.3,3.1-2.3c1.8,1.4,1.5,3.3,0,4.8c-1.5,1.6-4.1,2.9-6.6,3
						c4.5,6.2,6.1,4.9,8.3,2.9c1.1-1,2.4-2.3,4.4-3.1c2.1-0.8,4.8-1.2,9.2-0.5c0,0-0.4,0.3-1,0.6c-0.6,0.4-1.4,0.8-2.2,1.3
						c-0.8,0.5-1.6,0.9-2.3,1.3c-0.6,0.4-1,0.6-1,0.6c2.5,2.3,4.8,3,7.2,3.2c2.4,0.2,4.9-0.4,7.8-0.6l164.2-12.9l-178.2-54.6
						c-1.5-0.5-3.2-1.1-5-2.3c0.7,0.9,3,2.9,5.2,5.1l86.7,90l-73.8-28c-5.3-2-9.7-5.1-5.7-8.7c0.7,0.1,1.5,0,2.3-0.1l121.3-21.5
						l-130.3-22.3c-1.7-0.3-3.7,0.1-6.3,2.2c-0.3-4.8-3.9-3.5-8.4-2.9l-0.1-6.4c-4.9,2.1-4.3,5.4-7,8.5c-5.6-0.3-7.1-5-8.8-9.1
						c-4.6-0.1-2.8,1.7-1.3,3.9c1.5,2.1,2.9,4.6-2.3,5.6c-7.6-1.7-12.7,1.4-21,6.4c-5.5-1.5,0.4-4-1.7-5.6c0,0-1,1.4-2,2.8
						c-1,1.4-1.9,2.9-1.9,2.9c-1.1,0.1-1-1.6-0.9-2.4c-3.6,2.6,0.6,6.3-5.1,9c-0.2,3.6-3.7,1.6-7.9-0.1c-4.2-1.7-9.4-3-12.2,1.7
						c-2.2-1.4,0-4-1.1-6.3c-4.6,3.7-6.5,5.2-8.2,6.9c-0.8,0.8-1.6,1.7-2.5,2.9c-0.9,1.2-2.1,2.8-3.6,5.1c0,0-2-0.5-4.1-1
						c-2.1-0.5-4.1-0.9-4.1-0.9c3.3,1.5,3.7,4.1,2.8,7.1c-0.5,1.5-1.2,3.1-2.1,4.7c-0.5,0.8-0.9,1.6-1.4,2.4c-0.5,0.8-1,1.6-1.5,2.4
						c2.5,1.6,4.5,3,5.8,3.7c0,0-1.9,1.5-3.7,3c-1.8,1.5-3.6,3.1-3.6,3.1c-1.4-0.6-1.3-3-0.8-6c-0.4,0.7-0.8,1.4-1,2
						c-1.9-0.6-2.8-1.8-3.1-3.5c-0.3-1.7,0-3.7,0.5-5.8c1.5,0.8,3,1.7,4.5,2.6c0.9-4.4,1.6-9.2,0-12.6c-0.4,0.9-1.3,1.9-2.4,2.7
						c0.2-1.2,0.3-2.2-0.2-2.7c-0.5-0.5-1,1.1-2,3.2c0,0-1.1-1.5-2.2-3c-1.1-1.5-2.3-3-2.3-3l0.5,2.8c0,0-0.2,0-0.6,0
						c-0.4,0-0.9,0-1.5,0c-1.3,0-3,0.1-4.7,0.2c-3.4,0.1-6.9,0.4-6.9,0.4c-1.4,2.6-2.7,5.3-3.9,8.1c-1.2,2.8-2.4,5.7-3.7,8.5
						c-1.3,2.8-2.7,5.7-4.4,8.3c-1.7,2.6-3.7,5.3-6.3,7.6c0.3-6.2-3.7-7.7-6.7-13.1c3.4,1.8,5.4-0.2,7.6-2.9
						c1.1-1.3,2.3-2.9,3.6-4.3c0.7-0.7,1.4-1.3,2.2-1.9c0.8-0.5,1.6-0.9,2.6-1.2c-3.9,1.1-4.4-1.9-4-3.3c0,0-0.2,0.2-0.4,0.5
						c-0.3,0.3-0.6,0.8-1.1,1.3c-0.9,1.1-2.1,2.5-3.2,4c-0.6,0.7-1.1,1.4-1.7,2.1c-0.5,0.7-1,1.4-1.4,1.9c-0.8,1.1-1.4,1.9-1.4,1.9
						c-1.1-2.3-2.2-2.7-3.6-2.6c-1.3,0.1-2.9,0.8-5,0.9c3.8,3.6,2.5,6.3,0,8.9c-1.3,1.2-2.8,2.5-4.2,3.9c-1.4,1.3-2.7,2.6-3.4,4
						c-2.3-2.5-3.2-6.1,2.9-9.3c-5.2-1-5.6,2.8-5.7,6.7c-0.1,3.9,0.1,7.8-4.8,7.5c1.2-1.1,2.2-1.2,1.7-2.9c-0.3,1.2-1.1,2.2-2.1,3.2
						c-1,1-2.1,1.8-3.3,2.4c-2.3,1.2-4.6,1.3-4.7-0.5l1.2-1.1c-0.6,0.4-1.2,0.8-1.8,1.2c-0.6,0.5-1.2,1-1.9,1.5
						c-1.3,1.1-2.6,2.3-4,3.5c-1.4,1.2-2.6,2.7-3.8,4.1c-1.2,1.5-2.4,2.9-3.4,4.5c-1,1.5-1.9,3.1-2.6,4.6c-0.4,0.7-0.7,1.5-1,2.2
						c-0.3,0.7-0.5,1.4-0.6,2.1c-0.6,2.8-0.4,5.1,1.1,6.7c-0.9-0.6-7.1-7.5-8-9.1c0,0,0.6,2.1,1.5,5.2c0.2,0.8,0.5,1.6,0.8,2.5
						c0.3,0.9,0.6,1.8,1,2.8c0.7,1.9,1.4,3.9,2.2,5.9c0.8,2,1.5,3.9,2.3,5.7c0.8,1.8,1.6,3.5,2.3,4.9c1.4,2.8,2.3,4.7,2.3,4.7
						c-2.7-2.6-8.5-5-13.5-7.8c-5.1-2.8-9.3-6.1-8.4-11.3c-2.3,1.7-5.4,3.9-6,10.3c0.9-0.6,3.8-0.2,6.3,0.6c2.5,0.8,4.7,2.1,4.4,3.3
						c-5.1,0.8-6.7,1.3-8.2,2.1c-1.5,0.8-2.8,1.8-7.9,4.2c1.3-0.9,4.2,0.6,6.5,2.7c1.2,1.1,2.2,2.3,2.8,3.5c0.6,1.2,0.9,2.3,0.4,3.2
						c-1.3-1.3-10.5-4.2-11-6.2c0,0,1.5,3.7,3.1,7.2c0.8,1.8,1.6,3.5,2.2,4.7c0.7,1.3,1.1,2.1,1.1,2.1c-1.1-3.1-8.8-3.8-12.6-2.4
						c1.2-0.2,0.4,2.1-0.7,4.8c-1.2,2.7-2.2,6-2,7.6c0,0,0.9-1,1.8-2c0.9-1,1.8-1.9,1.8-1.9c-1.2,2.9-1,5.3,0,7.5
						c0.9,2.2,2.5,4,4.3,5.8c1.8,1.8,3.6,3.6,4.8,5.5c1.2,2,1.8,4.1,1.4,6.8c-1.1-0.8-4.6-2.1-8-2.5c-3.4-0.4-6.9,0.2-7.9,3.2
						c1.4,0.8,3.7,2.2,6.5,3.8c2.6,1.5,5.8,3.4,9.4,5.5c3.3,2,6.6,4.1,9.3,6.1c2.8,2.1,5.1,4.1,6.3,6.2l-3.2,1.9c0,0,1,1.6,2.1,3.2
						c1.1,1.6,2.2,3.1,2.2,3.1c-2.3-0.8-5.2-2-8.4-3.6c-1.6-0.8-3.2-1.7-4.9-2.7c-1.7-1-3.3-2.1-5-3.2c-1.7-1.1-3.3-2.3-5-3.5
						c-1.6-1.2-3-2.5-4.4-3.7c-2.8-2.5-5.2-5-6.9-7.1c-2.7,4.5-3.9,1.1-3.8,8.2c-3.1,2.5-4.6-4-4.7-6.2c0,0-0.6,4.2-1.2,8.5
						c-0.3,4.3-0.7,8.6-0.7,8.6c3.4-0.6,5.1,2.6,7,5.6c1.9,3,3.6,5.9,6.4,5.3c0,0-2.2-4.1-4.4-8.3c-2-4.3-3.9-8.8-3.9-8.8
						c3.3-0.4,8.2,2.1,12.2,5.7c1.9,1.8,3.8,3.9,5.2,6.2c0.7,1.1,1.2,2.3,1.6,3.6c0.2,0.6,0.3,1.3,0.4,1.9c0.1,0.6,0.2,1.3,0.3,1.9
						c-1.1,1.5-4.1,1.5-7.2,1.2c-3-0.4-6.1-1.2-7.2-0.9c1.3,0.6,2.8,3.1,3.9,5.6c1.1,2.5,1.6,5,1,5.6c0,0-1.2-1-2.3-2
						c-1.1-1-2.2-2.1-2.2-2.1c-0.3,1.7,0.1,3.1,1.1,4.4c0.9,1.2,2.2,2.3,3.4,3.4c1.2,1.1,2.2,2.3,2.7,3.7c0.5,1.5,0.5,3.2-0.4,5.5
						c0.2,1.3-1.3,3.9-2.2,6c-1,2.2-1.5,4,0.5,3.5c5.7-6.9,28.2-14.8,34.3-14.5c0,0.2-0.4,1.2-0.6,2.4c-0.3,1.3-0.7,3-1.2,4.9
						c-0.5,1.8-1,3.8-1.5,5.6c-0.5,1.7-1,3.3-1.5,4.3c-1.9,3-5.7,3.3-9.6,3.4c-3.8,0.1-7.7-0.2-9.3,2.5c1.7-0.6,4.8,0.5,5.9,1.1
						c-0.2,3.1-5.6,1.5-2.2,6.5c3.2-1.1,4.6,1.5,5.2,3.1c0.7,1.6,0.7,2.1,1.2-3.4c2.3,2,2.7,3.4,3,5.1c0.2,0.8,0.3,1.7,0.6,2.8
						c0.4,1,1,2.1,2,3.5c1.2-2.1,5.2-2.9,9.3-3c2.1,0,4.1,0.1,6,0.4c1.9,0.3,3.6,0.7,4.8,1.4c-1.5,0.8-2.6,3.2-3,4.3
						c0.8,1.1,1.5,2.2,2.1,3.2c0.7,1,1.4,1.9,2,2.9c1.2,1.9,2.3,3.7,3.4,5.5c1.2,1.7,2.4,3.4,3.7,5.1c0.7,0.8,1.4,1.7,2.2,2.6
						c0.8,0.8,1.7,1.6,2.7,2.4c-0.4,1.8,2.3,6.6-1.2,7.5c1,0,2.1-0.2,3.3-0.2c1.2,0,2.5,0.1,3.8,1c1.6,8.4-6.4-3.5-6.8,4.9
						c1.4-1.4,3.9-1.3,6.7-0.7c1.4,0.3,2.9,0.7,4.3,1.1c1.5,0.3,2.9,0.6,4.2,0.7c0.5-1.5,0.3-2.6-0.4-3.5c-0.4-0.5-0.9-0.8-1.4-1.2
						c-0.6-0.4-1.2-0.7-1.9-1c-1.4-0.6-3.1-1-4.8-1.3c-1.6-0.3-3.3-0.5-4.5-0.8c1.3-1.7,3-3,5-4.1c2-1.1,4.2-2,6.6-2.6
						c2.4-0.6,4.9-0.9,7.4-1c2.6-0.1,5.2,0,7.7,0.5c1.9,0.6,2.8,1.2,3.2,1.9c0.4,0.7,0.2,1.4-0.1,2.1c-0.7,1.3-2.2,2.3-1.3,2.1
						c6,4.4,10.7,2.5,14.5,1c1-0.4,1.9-0.7,2.8-1c0.9-0.3,1.8-0.4,2.7-0.4c1.8,0.1,3.6,1.1,5.7,3.7c1.1,3.4,0.2,5.9-1.2,8
						c-1.4,2.1-3.1,3.9-3.4,5.9c-3.5-0.3-5.4-2.3-7-4.2c-0.8-1-1.5-1.9-2.3-2.8c-0.7-0.9-1.5-1.6-2.6-2.1c0,0,0.9,1.2,1.9,2.4
						c0.5,0.6,1,1.2,1.3,1.6c0.4,0.4,0.6,0.7,0.6,0.7c-0.7,0.2-1.5,0.3-2.3,0.3c-0.8,0-1.7-0.1-2.5-0.4c-1.7-0.4-3.2-1.3-3.9-2.5
						c0.4,1.6,2,3.1,4.4,4.8c2.4,1.6,5.6,3.1,8.9,4.8c1.7,0.8,3.5,1.6,5.3,2.4c1.8,0.8,3.5,1.7,5.3,2.5c3.5,1.6,6.6,3.5,9.1,5.5
						c2.6-1,6.7-1.6,5.7-4.2l-3.8-0.5c-1.8-5.2,8.6-3.4,4.8-6.9c2.8-0.7,5.9-1.7,9-2.1c3.1-0.4,6.1,0,9.1,2.1l-0.4,6.3
						c0.3-1.8-3.4-4.7-5.8-3.5c1.8-0.9,3.7,1.9,6,3.9c2.2,2.1,4.7,3.6,7.3,0.1c0,0-0.9-1.3-1.8-2.7c-0.9-1.4-1.8-2.7-1.8-2.7
						c2.8-0.8,6.1-2.4,9.3-3.4c1.6-0.5,3.2-0.8,4.8-0.8c1.6,0,3,0.3,4.4,1.1c-1.3-6.5-1.6,0.4-4-7.5c0.7,4.7-3,3.7-6.4,2.8
						c-1.7-0.5-3.4-0.9-4.4-0.6c-1,0.3-1.4,1.4-0.6,4.1c-1-4.6-2.6-5.9-4.4-7.1c-1.8-1.2-3.7-2.4-5.3-6.6c-0.4,2,0.8,4.3-3.7,1.9
						c-0.4,0.5-1.1,1.1-1.6,1.4c-0.1-0.1-0.2-0.1-0.3-0.2c0.1,0.1,0.1,0.2,0.2,0.3c-0.3,0.2-0.3,0.3,0.1,0.1
						c0.9,1.2,1.5,2.5,1.5,3.7c-0.9,0.9-2.1,1.5-3.4,1.8c-1.3,0.3-2.7,0.3-4.1,0.3c-2.8-0.1-5.5-0.3-7.2,0.3
						c-2.5-1.9,1.9-1.7,1.2-4.3l-5,2c0.6-2.2-0.6-4.6-0.9-6.5c-0.3-1.9,0-3.2,3.7-3.3c0,0-0.4-0.1-0.9-0.4c-0.5-0.2-1.2-0.5-1.9-0.8
						c-1.4-0.6-2.7-1.2-2.7-1.2c-1.1-1.9-2.8-3.4-4.4-4.5c-1.7-1.1-3.5-1.7-5.2-1.5c-0.5-0.5-1.3-0.7-2.2-0.6
						c-0.8,0-1.7,0.2-2.4,0.3c-1.4,0.3-2.1,0.7-0.2-0.4c0,0-2.4-0.4-4.7-0.9c-0.6-0.1-1.2-0.2-1.7-0.3c-0.5-0.1-1-0.2-1.5-0.3
						c-0.9-0.2-1.5-0.3-1.5-0.3l0.5-1c-0.9-0.6-2-1.1-3-1.6c-0.5-0.2-1.1-0.4-1.6-0.6c-0.5-0.2-1.1-0.4-1.6-0.6
						c-2.2-0.8-4.6-1.5-6.8-2.4c-2.2-1-4.3-2.3-6-4c-1.7-1.8-2.9-4.2-3.5-7.3c-0.4-0.1-0.8-0.2-1.1-0.4c-0.4-0.1-0.7-0.3-1.1-0.5
						c-0.7-0.3-1.5-0.7-2.2-1.2c-0.7-0.5-1.5-1-2.2-1.7c-0.4-0.4-0.7-0.7-1.1-1.2c-0.3-0.5-0.6-1-0.9-1.5l2.2-3.4
						c-0.9-0.4-1.6-1.3-2.2-2.3c-0.3-0.5-0.6-1.1-0.9-1.6c-0.3-0.6-0.5-1.2-0.7-1.7c-1-2.2-2-4-4.1-3.4c0.7-1.1,1.2-2.2,1.4-3.3
						c0.2-1,0.2-2,0-3c-0.4-1.9-1.6-3.5-2.8-5.3c-0.6-0.9-1.4-1.7-2.1-2.6c-0.4-0.4-0.7-0.8-1.1-1.3c-0.3-0.4-0.6-0.9-0.9-1.3
						c-1.2-1.7-2.2-3.4-2.5-4.9l-4.7,1.9c-0.7-2.1-1.7-3.9-3.1-5.8c-0.7-0.9-1.4-2-2.2-3c-0.8-1-1.6-2.1-2.5-3.3l-4.2,1.6
						c-0.6-0.5-1.1-1-1.5-1.6c-0.3-0.6-0.5-1.4-0.7-2.2c-0.3-1.6-0.2-3.3,0-5.2c0-0.9,0.2-1.9,0.4-2.9c0.1-1,0.3-2,0.4-2.9
						c0.2-2,0.1-3.9-0.1-5.8c0.9,0.2,1.3,0.7,1.3,1.4c0,0.7-0.1,1.6-0.5,2.4c0.5-0.7,0.9-1.3,1.3-1.9c0.3-0.6,0.6-1.3,0.8-1.9
						c0.4-1.2,0.4-2.4,0.3-3.5c-0.2-1.2-0.6-2.3-1.1-3.4c-0.4-1.1-1-2.3-1.6-3.4c-0.6-1.2-1.2-2.3-1.8-3.5c-0.5-1.2-0.8-2.3-1-3.5
						c-0.2-1.2-0.2-2.3,0.1-3.4c0.1-0.5,0.3-1.1,0.6-1.6c0.3-0.5,0.7-1,1.3-1.5c-1.4-2.2-0.7-3.7,0.5-5c0,0.2,0.1,0.4,0.2,0.5
						c0.1-0.2,0.1-0.5,0.1-0.8c0.4-0.4,0.9-0.8,1.3-1.2c0.5-0.4,1-0.8,1.4-1.3c-1.2,0.7-2.3,1.4-2.7,2c0-0.8,0.1-1.8-0.1-2.9
						c-0.1-1.1-0.3-2.4-0.7-3.7l4.9-0.1c0-0.2,0-0.3,0-0.6c1-0.9,0.6-1.5-0.6-1.8c-1.2-0.3-3.2-0.3-5.1,0c-0.5-1.3-1.1-2.6-2.1-3.8
						c4-0.1,3.7-1.7,3.6-3.5c-0.1-0.9-0.1-1.8,0.5-2.5c0.6-0.7,1.7-1.1,3.8-1.1c-0.8-0.7-1.2-1.8-1.4-3.2c-0.1-0.7-0.2-1.4-0.2-2.2
						c0-0.8,0-1.6,0-2.4c-0.1-3.2-0.7-6.8-4.2-9.2c1,0.4,1.9-0.1,1.3,1.2c1.1-1.1,2.1-2.1,2.8-3.4c0.7-1.2,0.9-2.6,0.5-4.3
						c0,0,1.5,0.5,3,0.9c1.5,0.5,3,1,3,1s-1.1-2.3-2.1-4.7c-0.5-1.2-1-2.4-1.3-3.3c-0.3-0.9-0.5-1.5-0.5-1.5
						c5.3-1.3,7.8-1.2,9.8,4.4c-0.3-2.8-0.4-4.7-0.3-6.1c0.1-1.4,0.4-2.3,0.6-3.1c0.5-1.7,0.7-3.3,0.4-8.6l2.8,2.8
						c0.8-1.1,0.9-3.4,1.3-5.3c0.4-1.9,1.1-3.4,2.9-2.9c1.2,0.1,2.4-0.3,3.8-0.8c1.3-0.5,2.7-1.3,4.1-2.3c0.7-0.5,1.4-1.1,2.1-1.6
						c0.8-0.6,1.5-1.2,2.3-1.8c1.6-1.3,3.2-2.7,4.9-4c3.4-2.8,7.3-5.6,11.3-7.9c2.1-1.1,4.1-2.2,6.2-2.9c2.1-0.7,4.3-1.3,6.4-1.6
						c-2.2-2.1-2.7-3.1-2.3-3.6c0.4-0.5,1.7-0.4,3.1-0.2c2.9,0.3,6.1,0.6,4.3-3.5c2.2,2,4.8,2.3,3.7,5.6c1.4-1.5,3-2.4,4.4-3
						c1.5-0.6,3-0.8,4.3-1.2c1.3-0.4,2.5-0.8,3.4-1.8c1-0.9,1.8-2.3,2.3-4.6c1.9,2.2,0,4.4,1.4,5.6c0.3-0.8,1.4-3.2,2.8-2
						c1.4,1.2-0.2,2.6-0.8,4.2c0.9-0.4,1.6-1,2.2-1.5c0.6-0.6,1.1-1.2,1.5-1.9c0.8-1.4,1.1-2.9,1.2-4.7c0.1-3.4-1-7.4-2.1-11.3
						c2.7,1,4.5,1.3,5.8,0.5c1.3-0.8,2.1-2.6,2.8-5.6c2.3,2,5.5,3.9,0.7,6.4c0.8-0.1,2.3-0.3,4.1-0.6c0.9-0.1,1.9-0.3,3-0.5
						c1-0.2,2.1-0.4,3.1-0.7c4.1-1.1,7.7-2.7,7.1-5.9c1.3,1.3,4.2-0.6,4.9-1.5c3.4-0.6,5.3-0.8,7.1-1c1.8-0.2,3.6-0.6,6.9-1.6
						l-2-0.7c0.6-4.1,1.9-4.8,3.7-4.6c1.8,0.1,4.1,1,6.8,0.1l0,0.8c6.7,1.8,7.9,0.9,9.2,0.2c0.6-0.4,1.3-0.7,2.5-0.7
						c1.3,0,3.3,0.4,6.5,1.7l-1.2-4.7c0-5.2,3-4,6.7-2.1c1.9,1,4,2.1,6,2.8c2,0.6,4,0.8,5.8-0.4l-2.9-2.5c1.9-1.9,4.9,1.3,8,5.2
						c3.1,3.9,6.1,8.4,8.1,9c0.9,0.9-1.3,1.5-2.4,2.3c10.6,5.5,0.9-6.4,8.6-8.2c1.6,3.3-1.4,8.7,3.8,9.1c0.7,0.7,2.2,0.2,4-0.9
						l-10.8-52.1c-0.7,0.9-1.4,2.1-2.2,3.3c-0.9,1.2-1.9,2.3-3,3.3c-1.1,0.9-2.4,1.6-3.6,1.9c-1.3,0.2-2.6,0-3.9-1
						c1.7,2.3,3.7,4.6,1,7.1c-1.2,0.4-2.7,0.2-4.3-0.3c-1.6-0.5-3.4-1.3-5.1-1.9c-3.4-1.2-6.5-1.7-8.6,2.5c-0.7-0.7-0.9-1.4-1-2
						c-1.9,1.1-5,2-8,3.2c-3,1.1-6,2.4-7.4,4.6c-0.7-4.2-2.6-5.9-5.1-6.4c-2.5-0.5-5.6,0.3-8.6,1c-6.1,1.4-12,2.9-10.7-4.7
						c0,0-0.8-0.1-2-0.2c-1.2-0.1-2.7-0.3-4.3-0.5c-1.6-0.2-3.1-0.4-4.3-0.5c-1.2-0.2-1.9-0.3-1.9-0.3l0.6-1.5
						c-3.8-1.3-6.5-1.3-8.7-0.5c-2.3,0.7-4.1,2.2-5.9,3.5c-1.5-1.5,0.2-2.5,0.5-3.2c-2.6-1.5-4.5-2.7-6.2-3.4
						c-1.7-0.8-3.1-1.2-4.6-1.3c-1.5-0.1-3,0.1-4.9,0.5c-1.9,0.4-4.2,1.1-7.1,2l1-5c-1.7,0.8-4.8-2.5-8.5-6.2
						c-0.9-0.9-1.9-1.9-2.9-2.8c-1-0.9-2.1-1.7-3.2-2.5c-1.1-0.8-2.4-1.4-3.6-1.9c-1.3-0.5-2.7-0.8-4.1-1c0.4-0.4,1.1-1.1,2.2-1.2
						c-1.6-0.2-3-0.9-4.3-1.7c-1.3-0.9-2.4-2.1-3.4-3.4c-1-1.3-1.9-2.7-2.6-4.2c-0.7-1.5-1.5-2.9-2.1-4.2c-1.4-2.7-2.6-5-4.6-6.1
						c-1.9-1.1-4.7-1.1-8.9,0.8c0,0-0.5-0.2-1.3-0.6c-0.8-0.3-1.8-0.8-2.8-1.3c-2-1-4-2.1-4-2.1c2.3,4.7,0.5,5.6-2,5.8
						c-2.4,0.2-5.6-0.3-5.5,2.5c-0.8-0.8-1.4-2-1.6-3.3c-0.2-1.3-0.2-2.7,0.1-3.8c0.6-2.2,2-3.4,3.8-1.4l-0.4,1.2
						c4.5-1.6,3.5-4.8,2.5-8c-1.1-3.2-2.4-6.5,0.7-7.5c-1.9-4.3-2.9-8.9-3.3-13.5c-0.3-2.2-0.1-4.6-0.1-6.8c0.1-1.1,0.2-2.3,0.3-3.4
						c0.1-0.6,0.1-1.1,0.2-1.7l0.3-1.7c1.5-8.9,4.8-17.1,8-25.1c0,0-1.9-0.2-3.8-0.3c-1.9-0.1-3.8-0.2-3.8-0.2s0.2-0.4,0.4-0.9
						c0.1-0.3,0.3-0.6,0.4-1c0.2-0.3,0.4-0.7,0.5-1.1c0.7-1.5,1.4-2.9,1.4-2.9c1.1-0.5,2.7-0.4,3.6,0.3c1,0.7,1.5,1.9,0.5,3.9
						c2.4-0.3,2.2-2.3,1.5-4.3c-0.8-2.1-2.2-4.4-2.9-4.8c3.5-3.3,4.9-1.4,5.7,0.8c0.8,2.2,1.1,4.9,1.8,3.8c0,0,0.2-0.8,0.5-1.7
						c0.3-0.8,0.6-1.6,0.6-1.6l-1.1,0.3c-0.6-2-1.6-3.4-2-5c-0.4-1.5-0.2-3.1,1.4-5.4c3.2-2,4.7,1.1,5.7,0.2
						c0.4,0.3,0.8,0.1,1.3-1.5c0,0,1.3-1.4,2.6-2.8c1.4-1.3,2.7-2.7,2.7-2.7s-1.6-0.4-3.2-0.7c-1.6-0.4-3.2-0.7-3.2-0.7
						c0.1-2.3,1.4-3.7,1.8-4.7c0.4-1-0.1-1.7-3.9-2.4c1.4,0.3,2.9,0.2,4.3-0.1c1.5-0.4,2.9-1,4.4-1.8c1.5-0.8,2.9-1.8,4.4-2.9
						c1.5-1.1,3-2.3,4.5-3.4c5.9-4.6,11.8-9.2,14.1-8.7c2.4-6.3,7.4-8.8,13.6-11c-1-0.2-2.4-1.7-2.8-3.3c-0.4-1.6,0.1-3.5,3.1-4.2
						c0.8,3.3,1.9,5,3.3,5.9c1.4,0.9,3,0.8,4.8,0.7c3.5-0.3,7.8-1.1,11.3,2.8c-2.9-2.5,0.8-4,4.2-5.7c1.7-0.8,3.3-1.7,4-2.8
						c0.7-1.1,0.4-2.5-1.7-4.3c2.5,0,2.9,1.2,3.1,2.7c0.3,1.5,0.5,3.3,2.6,4.4c4.9-3.8,11.4-4.1,18.1-3.7c6.8,0.4,13.8,1.5,20.9,0.3
						c0.2-1.8-2.4-4.3,0.6-7.1c0,0,2,2.1,4,4.3c2,2.1,3.9,4.3,3.9,4.3c2.8-0.9,2.5-10.2,7.8-4.1c-0.7-1.5-1.9-3.7,0.1-4.3
						c7.2,2.2,14.5,3,21.8,3.4c7.4,0.4,14.9,0.2,22.5,0.4c15.1,0.4,30.3,2.2,43.9,12.1c-3.5-3.9-0.8-3.9,2.2-3.6
						c-1.9-1.1,0.6-4.3,0.6-6.7c0,0,2.9,2.1,5.7,4.2c2.8,2.1,5.7,4.2,5.7,4.2c3.3-6.2,13.3,1.6,15.6-4.4l-4.1,0.5
						c3.2-3.2,2.1-7.6,0.4-12.4c-1.7-4.7-4-9.8-2.9-14.5c-3.7,3.7-7.1,0-11.2-3.3c-4.1-3.3-8.8-6.2-14.5-0.8c-2-2.2,2.3-2.8,1.4-5.2
						c-3.1,3.8-6.2,4.2-11.6,1.7l0.8-0.9c-8-0.4-13.6-1.7-19.4-3.5c-5.8-1.8-11.9-4-20.8-5.9l1,4.8c-3.8-0.9-4.5-2.4-6.3-3.7
						c-4.9,6.9,10.9,1.1,6.3,8.8c-2.2-5-9-5.5-15.7-6c-6.7-0.5-13.1-1-14.9-6.5c-6.1-0.1,1.7,5.5-4.4,5.4l-1.6-3l-1.6,3.8
						c-4-0.6-6.1-4.3-6.3-6.8c1,0.3,2.8-0.8,3.9-1c-2.7-1.7-6.4-1.4-9.7-0.7c-1.7,0.4-3.2,0.8-4.4,1.1c-1.2,0.3-2.2,0.4-2.7,0.2
						c0,0,1.5,0.4,3.1,0.8c1.5,0.4,3,0.8,3,0.8c-8.4,1.7-17.9,2.1-27.4,3.4c-9.4,1.3-18.8,3.6-26.3,8.5l1.8,1.9
						c-2.8,1.8-4.9,2.7-6.6,3.1c-1.7,0.5-3,0.5-4.5,0.4c-1.4-0.1-2.9-0.1-4.8,0.2c-1,0.2-2,0.4-3.3,0.9c-1.2,0.4-2.6,1.1-4.2,1.9
						l0.3-0.7c-1.9,3-4.9,5.5-8.5,6.7c1.1-1.9-0.9-2.4-2.9-3c-1.9-0.6-3.8-1.2-2.2-3.5c-2.8,2.4-4.5,4.2-5.5,5.4
						c-1,1.2-1.4,2.1-1.6,2.9c-0.4,1.7-0.1,3.7-2,9.4c0,0-0.9-0.5-1.8-1.1c-0.9-0.5-1.8-1.1-1.8-1.1c-1,4.5-0.3,6-5.5,10.6
						c1.5-2.8-0.2-3.4-1.9-4.2c-1.7-0.7-3.5-1.6-1.9-5.1c-1.1,0.1-2.1,0.2-3,0.5c-0.9,0.2-1.8,0.5-2.6,0.9c-1.6,0.7-2.9,1.5-4.1,2.5
						c-2.2,2-3.8,4.3-5,6.4c-2.6,4.2-4.3,7.4-11.1,5.7c0.5,3.1,1.7,4.3,3,4.4c1.3,0.1,2.9-0.8,4.4-1.8c2.9-2.2,5.6-5.2,4.8-3.1
						c2.3,0.2,2.5,2.6,1.6,5.1c-0.4,1.3-1,2.7-1.8,3.8c-0.4,0.6-0.8,1.1-1.3,1.6c-0.4,0.5-0.9,0.9-1.4,1.2c-1.6,1.6-5.4,0.6-9.8,0.7
						c-4.4,0.1-9.5,1.2-13.2,6.5c0.8-1,0.2-1.5,1-2.5c-2.5,1.2-3.1,3.7-3.9,6.1c-0.7,2.5-1.7,4.9-5,6.4c1.9,3,0.9,4.6,0.3,6
						c-0.7,1.5-0.9,2.8,2.5,4.9c0,0,0.2-0.7,0.5-1.7c0.3-1,0.8-2.3,1.3-3.7c0.5-1.3,0.9-2.7,1.3-3.7c0.4-1,0.7-1.6,0.7-1.6
						c-0.2,0.8-0.3,1.7-0.3,2.6c0,0.9,0.1,1.9,0.2,2.8c0.2,1.9,0.4,3.9,0.6,5.9c0.2,2,0.1,4-0.5,5.9c-0.5,2-1.6,3.9-3.6,5.8
						c-1.3-1.3-2-4.9-2.3-7.3c-1.7,1-1.9,2.5-2.1,4c-0.2,1.5-0.3,3.1-2,4.2c-1.8-0.9-2.5-2.2-2.6-3.8c-0.1-1.6,0.5-3.5,1.3-5.5
						c0.7-2.1,1.7-4.2,2.3-6.4c0.6-2.2,1-4.5,0.5-6.8c-1.2,0.4-1.8,1.5-2.3,2.8c-0.4,1.4-0.5,3-0.7,4.3c-0.4,2.6-1,4.1-4.1,0.7
						c1.9,2.3,2.6,4.2,2.4,5.8c-0.1,1.7-1,3.1-1.9,4.7c-0.9,1.6-2,3.3-2.4,5.3c-0.4,2-0.2,4.3,1.2,6.9l-4.4-1.8
						c0.3,1.6,1.9,4.9,1.2,7.4c0,0-1.3-1.4-2.5-2.9c-1.2-1.5-2.5-3.1-2.5-3.1c0.9,2.1,0.8,4,0.3,5.7c-0.5,1.7-1.4,3.4-2.4,5.1
						c-0.5,0.8-1,1.7-1.5,2.5c-0.4,0.9-0.8,1.7-1.1,2.6c-0.6,1.8-0.9,3.6-0.3,5.5c0.2-3.9,0.8-6,1.5-7.1c0.7-1.1,1.5-1.1,2.5-0.9
						c0.9,0.2,1.9,0.8,3,0.8c1,0.1,2.1-0.2,3.2-1.6c0.1,0.6,0.2,1.1,0.3,1.6c0.1,0.5,0.2,1,0.2,1.5c0.1,0.9,0.2,1.8,0.1,2.5
						c0,1.5-0.4,2.7-0.8,3.7c-0.9,2-2.6,3.3-4.5,4.8c-1.9,1.4-3.7,3-5,5.7c-0.3,0.7-0.6,1.4-0.8,2.2c-0.2,0.8-0.4,1.7-0.4,2.6
						c-0.1,1.9,0.1,4.2,0.7,6.9c-0.6-1.4-0.1-4.3,0.8-6.2c0.9-1.9,2.2-2.8,3.5-0.7c-0.3,2-0.8,4.4-1.3,6.7c-0.5,2.3-1.2,4.5-2.2,6
						c0.4,1.8,1,3,1.4,3.9c0.4,0.9,0.8,1.4,1.1,1.6c0.7,0.4,1.2-0.3,1.7-1.2c1-1.9,2.1-4.7,4.2-2.2c-2.2,2.9-1.3,4.6,0.8,5.9
						c1,0.7,2.3,1.3,3.5,2c0.6,0.4,1.2,0.8,1.8,1.2c0.6,0.5,1.1,1,1.6,1.5l-4.5,1.7c0.3,1.9,0.7,3.4,1.3,4.5
						c0.5,1.1,1.1,1.8,1.7,2.2c1.2,0.9,2.5,0.8,3.8,0.6c2.5-0.3,4.8-0.8,6.2,5.8c0,0-0.5-0.1-1.3-0.2c-0.8-0.2-1.9-0.4-2.9-0.6
						c-2.1-0.5-4.3-1-4.3-1s1.2,1.4,2.4,2.8c0.6,0.7,1.2,1.4,1.7,1.9c0.5,0.5,0.8,0.8,0.8,0.8s-1.4,0.4-2.8,0.7
						c-1.4,0.4-2.8,0.7-2.8,0.7c1.9,1.2,3.3,2.3,4.5,3.3c1.1,1,2,1.9,2.7,3c1.4,2.1,2.4,4.5,4,8c0.8-1.8,2.7-2.8,4.9-2.9
						c2.2-0.1,4.6,0.8,6.7,3.1c0.3,2.5-0.9,2.9-1.4,3.3c-0.3,0.2-0.4,0.5,0,1.1c0.4,0.6,1.2,1.6,3,3.1c-1.8,0.3-3.8,0.7-5.3,0.2
						c-1.5-0.5-2.5-1.8-2.1-4.8c-1.5,0.7-3.7,0.3-5.1,0.9c0.2,1.5,0.7,2.9,1.5,4.2c0.8,1.3,1.9,2.4,2.9,3.4c2.2,2,4.6,3.5,5.8,4.8
						c-0.8-1.1-1.8-2.4-1.8-3.5c0,0,0.9,0.3,2.3,0.8c1.3,0.5,3.2,1.1,5,1.6c1.8,0.5,3.6,1.1,4.9,1.4c1.3,0.3,2.2,0.5,2.2,0.5
						c0.4,2.7-1.8,2.8-4,2.8c1.2,0.7,2.5,0.9,4,1.3c1.4,0.3,3,0.7,4.7,1.7c-1.6,1.2-3,2.7-4.7,3.6c-0.8,0.4-1.8,0.7-2.9,0.8
						c-1.1,0-2.3-0.2-3.7-0.8c0,0,0.8,0.3,2,0.8c1.2,0.5,2.9,1.1,4.5,1.7c1.6,0.6,3.3,1.1,4.5,1.5c1.2,0.4,2.1,0.6,2.1,0.6
						c-0.1,0.5,0.1,1.2,0.3,2c0.2,0.8,0.6,1.7,0.8,2.6c0.5,1.7,0.8,3.2-0.3,3.3c0.6,0.8,1.4,1.4,2.3,1.9c0.9,0.5,1.9,0.9,3,1.2
						c1.1,0.3,2.2,0.6,3.4,0.8c1.2,0.2,2.5,0.4,3.7,0.5c5,0.7,10.1,1.2,13.7,4.6c0.8-0.5,1.9-0.8,3.9-0.5c1.9,1.1,3.7,2.3,5.4,3.5
						c1.8,1.2,3.5,2.4,5.4,3.4c3.8,2,8.1,3.2,13.6,2.1c0,0,0.9,2.1,1.8,4.1c0.9,2.1,1.9,4.1,1.9,4.1c4,0.2,2.7-2.4,2.1-5
						c-0.6-2.6-0.5-5.1,5.9-4.9c9.1-0.2,1.9,6.6,4.6,9.2c2.6-1.3,6.1-3.3,9.8-4.2c1.8-0.4,3.7-0.6,5.6-0.2c1.9,0.4,3.7,1.3,5.5,3
						C262,282.4,260.1,281,257.5,281.1z M353.7,274.1c-0.8,0.8-1.9,2.3-3.1,3.3c-1.2,1-2.5,1.4-3.7,0.3c0.3-3,1-4,2.2-4.1
						C350.2,273.4,351.8,273.9,353.7,274.1z M218.9,265.9c0.6-1.9,2.8-1.9,5.5-1C223,265.8,221.3,266.3,218.9,265.9z M220,527.3
						c-0.1,0-0.2,0.1-0.2,0.2C217.5,524.4,218.3,525.6,220,527.3z M225.7,531.9c0.9-0.4,1.1-1,1.1-1.7c-0.9,0.9-2.4,0.4-3.9-0.6
						C222.8,531,223.4,532.1,225.7,531.9z M178.1,101.5l-1.7,0.3c0.2-1.6,0.5-2,0.8-1.9C177.4,100,177.7,100.7,178.1,101.5z"/>
					<path class="st0" d="M231.2,254.3c0.7,0.6,1.1,1.4,1.5,2.3C233.1,255.6,232.9,254.7,231.2,254.3z"/>
					<path class="st0" d="M199.6,266.9c-0.1-0.1-0.2-0.1-0.3-0.2c-0.3,0.2-0.5,0.4-0.6,0.7L199.6,266.9z"/>
					<path class="st0" d="M111.9,485c-0.2-1.9,0.2-3.2,0.7-4.2C111.5,481.3,110.9,482.4,111.9,485z"/>
					<path class="st0" d="M264.1,535.8l-4.7,0c2.2,0.4,2.7,1.6,3.6,2.6C263.1,537.3,262.7,535.5,264.1,535.8z"/>
					<path class="st0" d="M298,574.1c0.8-0.5,1.5,0.2,2.3-0.3l0.2-2.2C297.5,571.2,295,572.6,298,574.1z"/>
					<path class="st0" d="M264.2,552.4c-0.6,4,2.6,3.5,6.1,3.5c-0.2,0-0.4,0-0.6-0.1C272,550.5,268.1,551.5,264.2,552.4z"/>
					<path class="st0" d="M271.1,556c1.1,0.1,2.1,0.2,3.1,0.6C275.1,554.5,273,555.9,271.1,556z"/>
					<path class="st0" d="M235,532.6c1.1,1.5,2.6-4.6,2.9-2.7c1.6-2.2-1.2-1.5-3.4-0.3C232.3,530.7,230.7,532.4,235,532.6z"/>
					<polygon class="st0" points="263.6,566.1 263.6,560.9 260.8,564.3 					"/>
					<path class="st0" d="M238.6,555.1l4.8,2.9c0.2-0.8,1-1.1,1.9-1.2C242.1,555.7,238.9,553.7,238.6,555.1z"/>
					<path class="st0" d="M245.3,556.9c1.6,0.6,3.3,1,4.4,0.5C248.8,557.1,246.8,556.7,245.3,556.9z"/>
					<polygon class="st0" points="255.9,565.6 254.6,564.2 251,562.8 					"/>
					<path class="st0" d="M186,530.7l-5.7-2c-1.5,1.1-0.7,2.9,1.6,3.5C183.7,531.9,185.9,532.6,186,530.7z"/>
					<path class="st0" d="M195.4,551.5c-1-1.7-0.6-2.7-0.7-4.6l-3,5.4L195.4,551.5z"/>
					<path class="st0" d="M178.6,543.9c-1.4,1.2-10.5-0.9-3.4,3.2C176.7,546.2,182.9,548.1,178.6,543.9z"/>
					<path class="st0" d="M123.4,469l0.7,1.4l9.3-4.1c0,0-2.5,0.7-5,1.4C125.9,468.3,123.4,469,123.4,469z"/>
					<path class="st0" d="M91.5,384.7c-1.9,4-0.5,4.8,1,5.4c1.4,0.6,2.7,1.1,0.7,4.6c1.1,1.1,1.8-0.3,2.7-1.7
						c0.8-1.4,1.6-2.8,2.5-1.7C96.6,386.1,98.5,383.7,91.5,384.7z"/>
					<path class="st0" d="M98.3,391.3c0.3,0.8,0.6,1.7,1.1,2.7C99,392.5,98.7,391.8,98.3,391.3z"/>
					<polygon class="st0" points="419.8,65.9 423.9,68.7 421.6,64.9 					"/>
					<path class="st0" d="M429.5,59.9l-0.1,6.6l3.7-5.3C432.1,61.2,430,61.5,429.5,59.9z"/>
					<path class="st0" d="M335.4,218.5l-0.3,1.6c0.8,1.6,2,1.7,4.2,1.9L335.4,218.5z"/>
					<path class="st0" d="M296.7,290.4l1.2,0.2c0,0-0.5-1.5-1.1-3c-0.5-1.5-1-3-1-3L296.7,290.4z"/>
					<path class="st0" d="M237.7,290c2.3,0.8,5.4,0.1,7.7,0.8c-2.7,0-4.4-2.1-5.5-3.2C238.7,286.5,238.2,286.3,237.7,290z"/>
				</g>
			</g>
		</g>
	</g>
</g>
</svg>
