<?xml version="1.0" encoding="utf-8"?>
<!-- Generator: Adobe Illustrator 19.1.0, SVG Export Plug-In . SVG Version: 6.00 Build 0)  -->
<svg version="1.1" id="Layer_1" xmlns="http://www.w3.org/2000/svg" xmlns:xlink="http://www.w3.org/1999/xlink" x="0px" y="0px"
	 viewBox="0 0 576 576" style="enable-background:new 0 0 576 576;" xml:space="preserve">
<style type="text/css">
	.st0{fill:#1D4F3F;}
</style>
<g>
	<g>
		<g>
			<g>
				<g>
					<path class="st0" d="M474.1,462.6c1.7,0.9,3.1,1.5,4.3,2c1.2,0.6,2.2,1,3,1.2s1.5,0.6,2,0.7c0.5,0.2,0.9,0.3,1.1,0.3
						s0.3,0.1,0.4,0.1l0,0l0,0l-32.6-8.1l0,0l0,0h-0.1c-0.2,0-0.4,0-0.5,0.1c-0.7,0.1-1.4,0.4-2.1,3.4c0.1-1.1,0.3-2.1,0.6-3.1
						l0.2-0.8v-0.1c-7.5-1.9,65.5,16.3,34.6,8.6l0,0h-0.1l-0.3-0.1c-0.4-0.1-0.9-0.2-1.3-0.4c-0.4-0.1-0.8-0.3-1.2-0.4
						c-0.3-0.1-0.7-0.2-1-0.3c-1.2-0.4-2.3-0.9-3.2-1.4c-1.9-0.8-3.2-1.5-4.2-2c-1.9-1.1-2.6-1.4-2.4-1.3
						C471.5,461.2,474.4,462.8,474.1,462.6z"/>
					<path class="st0" d="M452.3,478.3l-1.1-2c0,0,0.1,1.7,0.3,3.5c0.1,1.8,0.2,3.5,0.2,3.5s0.2-1.3,0.3-2.5
						C452.1,479.5,452.3,478.3,452.3,478.3z"/>
					<path class="st0" d="M431.4,496.5c3.9,2.8,5.7,1,7-1.7c0.7-1.3,1.3-2.8,2.1-4.1c0.8-1.3,1.9-2.3,3.4-2.5l2,1l-3.3-7.1
						c-0.9,1.2-1.8,2.7-2.7,4.3c-0.4,0.8-0.9,1.6-1.3,2.4s-0.8,1.5-1.3,2.2c-0.9,1.4-1.7,2.7-2.7,3.7
						C433.7,495.7,432.6,496.4,431.4,496.5z"/>
					<path class="st0" d="M408.2,488.7c1.4,1.2,1.2,2.3,1.2,2.4s0.1-0.7,2-3.3c-0.5-0.1-0.7-0.3-1-0.4
						C410,487.8,409.4,488.2,408.2,488.7z"/>
					<path class="st0" d="M410.4,487.4C412.4,485.7,407.3,485.9,410.4,487.4L410.4,487.4z"/>
					<path class="st0" d="M401.3,496.1l1.2-4.7c-1.8-1.4-4.7-0.1-4.6-2c-1,1.7-1.1,2.9-0.5,3.9C398.1,494.4,399.4,495.2,401.3,496.1
						z"/>
					<path class="st0" d="M401.9,503.7l0.9-2.2C402.1,500.9,401.5,500.9,401.9,503.7z"/>
					<path class="st0" d="M404.7,496.9c0,0-0.4,1.2-0.9,2.3c-0.4,1.2-0.9,2.3-0.9,2.3c1.3,1,2.9,3.5,1-1.9
						C405.1,502.1,404.3,499.5,404.7,496.9z"/>
					<path class="st0" d="M407.4,496.8c2.8,0.5,5.7,0.1,4.5,4.8C417,496.6,412.3,491.9,407.4,496.8z"/>
					<path class="st0" d="M436.2,505l4,0.3v-4C440.2,503.2,434.2,502.8,436.2,505z"/>
					<path class="st0" d="M379.1,503.6c0.7,1.8,3.6,4,5.1,6.1l1.3-3.3C383.7,505.9,380.7,506.1,379.1,503.6z"/>
					<path class="st0" d="M384.3,509.7c0,0-0.5,1.3-1,2.5c-0.5,1.3-1,2.5-1,2.5C385.7,513.2,385.5,511.5,384.3,509.7z"/>
					<path class="st0" d="M406.8,512.8c0,0,0.6-2.4,1-4.9c0.5-2.4,0.9-4.9,0.9-4.9s-0.7,2.6-1.5,5.2s-1.6,5.2-1.6,5.2L406.8,512.8z"
						/>
					<path class="st0" d="M364.9,510.9v-5.2c0,0-0.2,2-0.3,4c-0.2,2-0.3,4.1-0.3,4.1L364.9,510.9z"/>
					<path class="st0" d="M355.6,516.5c-0.1-4.2-5.1-4.6-4.4-7.6c-2.4,1.9-3.2,6-4,9.6C348.7,516,351.1,515.3,355.6,516.5z"/>
					<path class="st0" d="M345.5,524.1c0.7-1.4,1.2-3.4,1.7-5.5C346.3,519.9,345.7,521.6,345.5,524.1z"/>
					<path class="st0" d="M375.3,517.3c-0.9-0.9-2.9-3.4-5.6-3.4l4.1,4.1C374.3,517.8,374.8,517.5,375.3,517.3z"/>
					<path class="st0" d="M373.9,518.1l-0.1-0.1c-1.7,0.7-2.9,1.2-3.4,1.4C370.9,519.2,371.9,518.8,373.9,518.1z"/>
					<path class="st0" d="M375.7,517.1c-0.1,0.1-0.3,0.1-0.4,0.2C375.7,517.7,375.9,517.8,375.7,517.1z"/>
					<path class="st0" d="M394.7,514.2c-0.6,3.9-3.6,9.5,3.2,11C397.6,521,393.8,520.1,394.7,514.2z"/>
					<path class="st0" d="M380.8,522.2l4.6-1.1c-0.8-1.2-2.5-2.7-2.2-4.7L380.8,522.2z"/>
					<polygon class="st0" points="379.7,524.9 380.8,522.2 379.1,522.6 					"/>
					<path class="st0" d="M355,525.3c-0.7,3.1-2.7,4.2-4.7,5.7c2.9-0.2,5.7-0.9,8-2.1C357.8,527.1,357.4,523.8,355,525.3z"/>
					<path class="st0" d="M364.5,522.3c-0.1,0.2-0.2,0.3-0.3,0.5C364.7,523,365,523.1,364.5,522.3z"/>
					<path class="st0" d="M330.5,539.4c0.2,0.3,0.4,0.6,0.6,0.9c-0.1-0.3-0.1-0.6-0.2-0.9H330.5z"/>
					<path class="st0" d="M359.1,529.6c2.3,0.1,2.8-1.7,3-3.7c-1.1,1.2-2.4,2.2-3.9,3C358.4,529.7,358.6,530.1,359.1,529.6z"/>
					<path class="st0" d="M340.9,529.2c1.3,0.7,2.7,1.1,4.2,1.4c-0.8-0.6-1.9-1.3-2.8-1.7C341.4,528.5,340.7,528.4,340.9,529.2z"/>
					<path class="st0" d="M362.9,521.7c0-0.1,0.1-0.3,0.2-0.4C362,520.5,362.3,521,362.9,521.7z"/>
					<path class="st0" d="M362.9,521.7c-0.6,1.2-0.7,2.8-0.8,4.2c0.9-0.9,1.6-2,2.1-3.1C363.8,522.5,363.3,522.1,362.9,521.7z"/>
					<path class="st0" d="M334.4,575.5c-0.5-2.6,0.3-5.3,1.8-7c1.6-1.7,3.9-2.2,7-0.5c1.5-2.6-0.1-7.6-2.8-12.9
						c-2.7-5.3-6.5-10.9-9.4-14.9c0.6,2.2,1.4,4.1-1.3,8.2c1,1.2,3.5,2.1,5.7,3.3s4,2.8,3.1,5.6c-4.6,4.4-5-0.2-8.3-2.1
						c1.9,2.8,1,5.5-0.3,8.6c-1.2,3.1-2.9,6.6-1.3,11.1c0,0,0.3-0.3,0.8-0.7s1.1-1,1.6-1.5c0.6-0.6,1.1-1.1,1.6-1.6
						c0.4-0.4,0.7-0.7,0.7-0.7C334,571.8,332.6,574.6,334.4,575.5z"/>
					<path class="st0" d="M338,538.2l1.3-1.2c-2.1-0.1-4.1-1.5-7.6-4.4c-1.4,3.2-1.2,5.1-0.8,6.8c0,0,1.8-0.4,3.6-0.9
						c1.8-0.5,3.8-1.1,3.8-1.1L338,538.2z"/>
					<path class="st0" d="M346.3,533.8c0.6,2.8,0.1,5.2,0.2,7.5c0,2.2,0.5,4.4,3,6.5c4.8-2.6,1.4-5.8,3.3-9.4
						c-3.7,2.5-3.4,1.5-3.2-0.1c0.3-1.6,0.5-3.9-3-4c1.1-1.6,2.3-2.5,3.6-3.4c-1.8,0.1-3.5,0-5.2-0.4c0.1,0.1,0.2,0.1,0.3,0.2l0,0
						v0.1c0.6,0.5,0.9,0.8,0.4,0.6c0,0.1-0.1,0.1-0.1,0.2C346,532.4,346.1,533.1,346.3,533.8c-2.7,0-1-1.2-0.6-2.1
						c-0.1-0.3-0.1-0.5-0.3-0.8c0,0,0,0-0.1-0.1l-6.1,6.2C341.1,537,343,536,346.3,533.8z"/>
					<path class="st0" d="M399.6,538.1c-0.5-0.3-0.7-0.6-0.9-1C398.5,538,398.5,538.5,399.6,538.1z"/>
					<path class="st0" d="M394.7,537c0.2-1-0.4-3.2,1.8-3.8c2.5,0.6,1.3,2.4,2.3,3.9c0.4-1.9,2-5.7-2.9-6.1l-0.2,1
						c-4.1,0.1-11.6-3.9-11.3-4.8C387.6,531.1,390.1,533.8,394.7,537z"/>
					<path class="st0" d="M370.8,537.1l-5.6,5.8l5.6,2.6l-1.5-2.5C373.7,542.1,371.3,539.4,370.8,537.1z"/>
					<path class="st0" d="M329,537l-1.2-5.8c0,0,0,0.6,0,1.4c0,0.8-0.1,1.9-0.1,3.1c-0.1,1.1-0.1,2.2-0.1,3.1
						c-0.1,0.8-0.1,1.4-0.1,1.4s0.4-0.8,0.8-1.5C328.6,537.8,329,537,329,537z"/>
					<path class="st0" d="M322.8,539.5l-0.9-5.1c0,0-0.2,0.8-0.4,1.7c-0.2,0.8-0.4,1.7-0.4,1.7s0.4,0.4,0.9,0.9
						C322.3,539.1,322.8,539.5,322.8,539.5z"/>
					<path class="st0" d="M184.3,257.1H180C181.4,257.1,182.8,257.1,184.3,257.1z"/>
					<path class="st0" d="M186.4,258.6l6.3,0.1C189.5,258.5,186.9,258.5,186.4,258.6z"/>
					<path class="st0" d="M148.8,458.2c1.6-2.1,4-4.5,5.2-6.1c1.3-1.5,1.4-2.2-1.2-1l-4.9,2.8C149.5,455.2,149.3,456.7,148.8,458.2z
						"/>
					<path class="st0" d="M146.6,315.2c-0.6-0.2-1.3-0.3-1.9-0.5c0.8,1.9,1.6,3.7,2.3,5.3C146.8,318.6,146.7,316.9,146.6,315.2z"/>
					<path class="st0" d="M131.9,296.9c0,0,1.5-0.2,3-0.5c0.7-0.1,1.5-0.2,2.1-0.3c0.6-0.1,1-0.1,1-0.1c-0.8-0.1-1.8-0.1-2.8,0
						C134.2,296.3,133.1,296.5,131.9,296.9z"/>
					<path class="st0" d="M147.8,249.4c0,0-1.2,0.9-2.4,1.8c-1.2,0.9-2.3,1.9-2.3,1.9C143.6,253.4,145.6,251.3,147.8,249.4z"/>
					<path class="st0" d="M238.9,527.2c-1.8-2.9-3.4-4.4-5-5.3C235.7,526,236.6,531.5,238.9,527.2z"/>
					<path class="st0" d="M297.3,255.4c-1.7-0.3-3.3-0.4-4.7-0.3C294.3,255.4,295.9,255.5,297.3,255.4z"/>
					<path class="st0" d="M226.9,519.5c0.2,0.7,0.5,1.1,0.8,1.7c1-0.1,2-0.2,3-0.1c1,0.1,2,0.3,3.1,0.8c-0.7-1.5-1.5-2.8-2.6-3.4
						C230.1,518,228.8,518.1,226.9,519.5z"/>
					<path class="st0" d="M306.1-3.2c0.3,0.3,0.6,0.4,0.8,0.7C307-3.2,306.6-3.3,306.1-3.2z"/>
					<path class="st0" d="M396.4,61.6c-0.9,0.2-2.4,0-3.8-0.1C393.2,62,394.3,62.1,396.4,61.6z"/>
					<path class="st0" d="M296,536.6C297.8,536.5,296.4,536,296,536.6L296,536.6z"/>
					<path class="st0" d="M301.6,559.9c-0.5,0.6-0.9,1.4-1.1,2.6C300.9,561.2,301.2,560.4,301.6,559.9z"/>
					<path class="st0" d="M195.1,544.3c-0.1,0-0.1-0.1-0.2-0.1C195.1,545.5,195.1,545.2,195.1,544.3z"/>
					<path class="st0" d="M298.2,539.6c-0.5-0.8-1.2-1.5-1.9-2C296.5,538,297.1,538.7,298.2,539.6z"/>
					<path class="st0" d="M298.3,536.9c0.6,0.3,1,0.5,1.4,0.8C300,536.7,299.9,536.1,298.3,536.9z"/>
					<path class="st0" d="M293.5,536.5c1,0.1,1.9,0.5,2.8,1.1c-0.3-0.4-0.4-0.8-0.2-0.9C295.5,536.6,294.7,536.6,293.5,536.5z"/>
					<path class="st0" d="M136.6,81.9c0.2,0,0.4-0.1,0.7-0.1C136.8,78.4,136.5,79.5,136.6,81.9z"/>
					<path class="st0" d="M80.5,419.2c0.1,0.1,0.2,0.2,0.3,0.3c0.1-0.1,0.1-0.3,0.2-0.4L80.5,419.2z"/>
					<path class="st0" d="M76.2,410.1c3.5,2,4.9,3.5,5.5,4.9c0.5,1.4,0,2.6-0.7,4.1c0,0,4-0.9,8.1-1.7c4-0.8,8.1-1.6,8.1-1.6
						s-1.3-0.3-3.3-0.8s-4.6-1.2-7.2-1.9C81.4,411.7,76.2,410.1,76.2,410.1z"/>
					<path class="st0" d="M166.9,254.2c0,0-1.6,0.4-3.4,0.8c-1.8,0.4-3.7,0.8-3.7,0.8c-8,0.6-10.5,0.9-12.6,1.1
						c-2.1,0.2-3.6,0.6-9.4,1.5c7.2-1.1,11.2-1.6,13.6-1.8c2.5-0.2,3.4-0.1,4.3,0c0.9,0.1,1.8,0.2,4.8,0.1c2.9-0.1,8.1-0.3,17.2-0.9
						c0,0-1.6,0.2-3.2,0.4c-1.7,0.2-3.3,0.3-3.3,0.3c0-0.1-2.2,0-2.1,0c-3.9,0.4-4.2,0.4-2.3,0.4s6-0.2,10.6-0.3
						c4.6-0.2,9.7-0.3,13.7-0.3c3.9,0,6.7,0,6.4,0.3c-0.8,0.2-2.5,0.3-4.8,0.4s-5.2,0.2-8.1,0.2c0,0,3.4,0,6.7,0.1
						c3.5,0.1,7,0.1,7,0.1c0.1,0.2-8.1,0.3-8,0.1c0,0,0.5,0,1.2,0.1s1.7,0.1,2.7,0.3c0.1,0,0.2,0.1,0.3,0.1c0.1,0.1,0,0.1,0,0.1
						c0,0.1,0,0.1,0,0.1c0,0.1-0.1,0.1-0.1,0.2c-0.1,0.1-0.1,0.2-0.1,0.2H193c3.2,0.1,7.2,0.2,10.6,0.4c3.5,0.2,6.5,0.3,8.2,0.5
						c-7.7,0.2-3.8-0.2-9.6-0.2c0,0,1.9,0.2,3.6,0.4c1.8,0.2,3.4,0.4,3.4,0.4c-6,0-10.8-0.2-13.9-0.4c-3.1-0.2-4.4-0.4-2.8-0.6
						c-11.4,0-16.3-0.1-17.9,0c-1.6,0,0,0.1,2.1,0.2s4.5,0.3,4.7,0.4c0.2,0.2-2,0.3-8.5,0.3c0,0-0.8-0.2-1.6-0.3
						c-0.9-0.1-1.7-0.3-1.7-0.3c-5.4-0.1-11.2-0.2-18.1-0.4c-2.6-0.1-4.4,0-10.7-0.4c1.6,0.1,4.4,0.3,8,0.5
						c3.5,0.2,7.9,0.4,12.3,0.5c8.9,0.3,18.7,0.6,22,1.1c-1.8,0-3.2,0.1-3.4,0.2c-0.3,0.1,0.7,0.4,3.4,0.9
						c-12.3-0.9-10.3-0.4-11.2,0.2l-14.9-1.6c1.7,0.4,4.4,0.8,7.3,1.3c2.9,0.5,6.2,1,8.8,1.6c-3.4,0.5-13.9-1.1-22.4-2.5
						c-1.6,0,2.4,0.8,7.2,1.5c4.7,0.8,10.4,1.5,9.7,2.4c-3.5,0-4.3,0.4-4,1.3s1.8,2.3,2.8,4.4c-2.6-0.1-3.9-0.8-5-1.5
						s-2.1-1.4-3.7-1.8c0,0,1.5,1,2.9,2s2.7,2.1,2.7,2.1c-0.6,0.2-2.5-1-3.5-1.6c0.7,1,2.7,2.2,4.6,3.4c1.9,1.2,3.6,2.4,3.1,4
						c3.8,2.9-1.1,2.1-5.4,1.1c-2.2-0.5-4.2-1-5.3-0.8c-0.6,0.1-1,0.4-1.1,0.9c-0.1,0.6,0.1,1.4,0.2,2.9c-2.7-0.9-2.6-4.4-5.1-6.6
						c-0.6,2.6-1.1,4.4-1.5,5.9c-0.4,1.6-0.7,2.7-1,3.8c-0.6,2.5-0.8,5.1-1,11.2c0,0-2.2,0.2-4.5,0.4c-2.3,0.2-4.5,0.4-4.5,0.4
						c4.1,0.5,6.1,3.3,7.1,6.9s1.3,8.2,1.5,12.2c3.4,0.9,6.2,1.8,7.7,2c0,0-0.7,2.2-1.3,4.5c-0.3,1.1-0.6,2.2-0.9,3
						c-0.2,0.8-0.3,1.4-0.3,1.4c-1.6-0.2-3.2-2.7-4.8-6.2c0.1,0.9,0.2,1.8,0.4,2.5c-4.2,0.1-6.8-4.2-8.7-9.1
						c1.9,0.3,3.9,0.8,5.9,1.3c-2.1-5-4.5-10.6-8.2-13.7c0.2,1.1,0,2.5-0.6,3.8c-0.5-1.4-1.1-2.5-1.9-2.9c-0.9-0.4-0.3,1.6,0.2,4.2
						c0,0-2.1-1.2-4.1-2.4c-2.1-1.2-4.1-2.4-4.1-2.4l2.3,2.9c0,0-3.2,1.4-6.5,2.8c-1.6,0.7-3.2,1.6-4.4,2.1c-1.2,0.6-2,1-2,1
						c0.2,1.6,0.4,3.3,0.7,5c0.3,1.7,0.7,3.4,1.1,5.1c0.8,3.3,1.6,6.6,2.4,10.1c0.8,3.4,1.5,6.7,1.7,10c0.3,3.3,0.3,6.6-0.4,9.8
						c-2.2-3-4.5-4.5-7.2-5.7s-5.7-2.1-9.2-4.1c4.7,0.3,5.3-2.5,5.4-6.2c0.1-1.8,0.1-3.9,0.5-5.8s1-3.8,2.5-5.1
						c-3,2.7-5.7-0.1-6.2-1.7c0,0-0.3,4-0.5,7.9c-0.1,1.9-0.1,3.9-0.1,5.4s0,2.4,0,2.4c-2.8-1.8-4.2-1.7-5.5-1
						c-0.6,0.4-1.2,0.9-1.9,1.4c-0.7,0.6-1.4,1.2-2.4,1.7c6.4,1.8,7.2,5.1,6.6,8.6c-0.1,0.9-0.4,1.8-0.6,2.8s-0.4,1.9-0.7,2.9
						c-0.4,1.9-0.6,3.7-0.2,5.3c-2.1-0.6-4.1-1.6-5.1-3.3c-1-1.6-1-3.9,0.8-6.9c-6,1.6-3.4,5.5-0.6,9.1c0.7,0.9,1.4,1.8,2.1,2.7
						c0.6,0.9,1.2,1.7,1.5,2.5c0.6,1.6,0.1,2.9-2.4,4c0.4-1.6,1.3-2.2-0.6-3.5c1.3,2.4,0.5,5.5-1,7.7c-1.3,2.2-3.4,3.5-5,2l0.3-1.6
						c-1,2.6-2.1,5.9-2.8,9.5c-0.5,3.6-0.8,7.5-0.6,11.1c0.4,3.6,1.3,7,2.7,9.5c0.7,1.3,1.6,2.3,2.7,3.1c1.1,0.8,2.3,1.4,3.7,1.6
						c-1.4,0.1-13.3-2-15.5-2.8c0,0,2.3,1.4,5.7,3.3c3.4,1.9,8,4.4,12.6,6.5c4.7,2.2,9.5,4.1,13,5.5s5.9,2.1,5.9,2.1
						c-4.8-0.4-12.7,1.1-20.2,1.9s-14.5,0.8-17.4-3.8c-0.6,1.4-1.3,2.9-1.4,4.8c0,0.5,0,1,0.1,1.5s0.3,1,0.5,1.6
						c0.4,1.1,1.1,2.3,2.1,3.6c0.6-1,3.9-2.4,7.2-3.3c3.3-0.9,6.6-1.2,7.1-0.1c-4.9,3.6-6.2,5-7.3,6.4c-0.5,0.7-1,1.5-1.8,2.7
						s-1.9,2.8-3.8,5.2c0.8-1.5,5-2.1,9-1.9s7.9,1.2,8,3.1c-2.3-0.2-14.3,3.3-16.1,2c0,0,1,0.5,2.5,1.2s3.6,1.6,5.7,2.4
						c4.2,1.7,8.3,3.1,8.3,3.1c-3.1-1.7-12.1,2.6-15.5,6.1c1.3-0.9,1.7,1.4,2.4,4.1c0.6,2.7,1.3,6.1,2.4,7.2c0,0,0.4-1.4,0.9-2.7
						c0.5-1.3,0.9-2.7,0.9-2.7c0.2,1.5,0.7,2.7,1.5,3.7c0.4,0.5,0.8,0.9,1.3,1.3s1.1,0.7,1.7,0.9c2.4,1.1,5.3,1.4,8.3,1.7
						c3,0.3,6,0.5,8.4,1.2c2.5,0.7,4.5,1.9,5.5,4.3c-1.6,0.1-6.2,1.4-10.2,3.4s-7.5,4.8-7,7.9c3.9-0.4,13.4-2,22.7-3.5
						c2.3-0.4,4.7-0.7,6.9-1c1.1-0.1,2.2-0.3,3.3-0.4s2.2-0.3,3.2-0.4c4.1-0.4,7.5-0.5,9.8,0.3c0,0-0.7,0.9-1.3,1.9
						c-0.6,0.9-1.3,1.9-1.3,1.9s1.9,0.4,3.8,0.9c1.9,0.4,3.7,0.8,3.7,0.8c-2.7,1.1-6.4,2.3-10.6,3.4c-2.1,0.5-4.4,1.1-6.6,1.5
						c-2.3,0.4-4.6,0.8-7,1.1c-4.7,0.6-9.6,0.9-14,0.9c-4.3-0.1-8.3-0.5-11.2-1c-0.3,2.8-1.2,3.7-1.6,4.7c-0.4,0.9-0.2,1.9,1.8,4.8
						c-1,2.1-2.8,2.2-4.5,1.4c-1.7-0.8-3.3-2.4-3.9-3.2c0,0,0.4,1,1,2.5c0.3,0.8,0.7,1.6,1,2.6c0.4,0.9,0.9,1.9,1.4,2.9
						c1.9,3.9,3.8,7.9,3.8,7.9c3.3-2.9,7-1.6,10.6-0.4c3.6,1.2,6.9,2.4,9.5-0.2c0,0-4.4-1.8-9-3.9c-2.3-1-4.5-2.2-6.1-3.1
						c-1.7-0.9-2.8-1.5-2.8-1.5c3.4-2.7,10-4.1,16.1-3.9c3.1,0,6.2,0.4,8.8,1.3c1.3,0.5,2.4,1.1,3.5,1.8c1,0.8,1.9,1.6,2.6,2.6
						c-0.4,2.1-3.6,4.4-7,6.4c-3.4,2-7,3.6-8,4.6c1.6-0.5,4.5,0.5,6.8,1.8c1.2,0.7,2.2,1.4,2.9,2.1c0.7,0.7,1.1,1.4,0.9,1.9
						c0,0-0.4,0-1,0s-1.5,0-2.3,0c-1.7-0.1-3.3-0.1-3.3-0.1c0.9,3.5,4.9,3.2,8.4,3.4s6.5,0.9,6.6,6.3c0.8,1,0.5,4.4,0.4,7.1
						c0,2.7,0.3,4.7,2,2.8c2.7-10.6,22-34.7,28.2-39.3c0,0.2,0.1,1.3,0.4,2.7c0.2,1.5,0.5,3.3,0.8,5.3s0.6,4.2,0.8,6.2
						s0.3,3.8,0.2,5.2c-0.7,4.2-4.3,7.4-8.1,10.4s-7.6,5.6-8.1,9.4c1.5-1.9,5-3.1,6.2-3.4c1,3.1-4.9,5.6,0.3,7.7
						c1.4-1.8,2.6-2.2,3.7-2.1c1.1,0.1,1.9,0.7,2.6,1.2c1.3,1,1.4,1.5-0.1-4.1c2.9,0.2,3.9,1.3,4.8,2.7c0.5,0.7,0.9,1.5,1.6,2.2
						c0.7,0.8,1.6,1.5,3,2.1c0.5-3,4-6.6,8-9.6c2-1.5,4.1-2.8,6-3.8c1-0.5,1.9-0.9,2.7-1.1c0.9-0.3,1.6-0.5,2.3-0.5
						c-1.2,1.9-1.5,5-1.6,6.5c2.2,1.2,4,2.5,5.7,3.8c1.7,1.2,3.3,2.5,4.8,3.7c3.1,2.5,6.2,4.7,10.7,6.4c0.1,2.4,3.6,6.2,0.5,9.2
						c1.8-1,4-3.5,6.9-2.7c3.1,9.1-6.7-1-5.4,9.2c1-2.4,3.4-3.4,6.2-4.1c2.8-0.8,5.9-1.2,8.4-2.1c0.5-4-1.6-5.1-4.6-4.9
						c-2.9,0.2-6.7,1.4-9.2,2.3c1.8-5.2,5.3-9.9,9.6-13.6c2.1-1.8,4.5-3.5,7-4.8s5-2.2,7.6-2.8c7.9-0.6,1.2,7.7,2.9,6.5
						c3.3,1.4,6,1.1,8.3,0.1c2.3-1,4.2-2.8,6-4.5c3.6-3.3,6.6-5.9,11.4-0.7c3,7.8-2.9,13.6-3,18.7c-3.4,0.6-5.4-1.1-7.2-2.9
						c-1.8-1.9-3.2-3.9-5.3-4.3c0,0,1.1,1.1,2.1,2.2c1.1,1.1,2.1,2.2,2.1,2.2c-2.5,1.8-7,2.5-8.7-0.1c0.6,1.8,2.3,3.1,4.8,4.3
						c2.5,1.1,5.7,2,9.1,2.9c6.8,1.8,14.5,3.7,19.5,7.6c2.4-1.9,6.2-3.7,5.1-6.8l-3.6,0.3c-1.1-3.1,0.9-4.7,2.6-6s3.2-2.2,1.3-3.9
						c2.6-1.5,5.3-3.7,7.9-5c2.7-1.3,5.2-1.8,7.9,0c0,0,0.1,2,0.3,4c0.2,2,0.3,4,0.3,4c0-2.3-3.5-5-5.4-2.8c0.7-0.8,1.6-0.5,2.5,0.3
						c1,0.8,2,2,3.1,3s2.3,1.7,3.4,1.6c1.1-0.2,2-1.2,2.6-3.9c0,0-1-1.4-2-2.8c-1-1.4-1.9-2.8-1.9-2.8c2-1.9,4.1-5.1,5.9-7.5
						s3.3-4.1,5.4-3.1c-1.5-3.7-1.6-3.5-1.9-3.4s-0.8,0.1-2.4-4.4c0.8,2.8,0.7,4.2,0,5c-0.6,0.7-1.8,0.8-2.9,0.8s-2.3,0-2.9,0.7
						s-0.8,2.2,0.3,5.3c-0.8-2.7-1.4-4.3-2.1-5.4c-0.7-1.1-1.3-1.7-2-2.2c-1.4-1.1-3-1.9-4.5-6.7c-0.2,2.6,0.9,5.2-2.8,3.4
						c-0.3,0.7-0.9,1.6-1.2,2.2c-0.1-0.1-0.1-0.1-0.2-0.2c0.1,0.1,0.1,0.2,0.2,0.3c-0.2,0.4-0.3,0.4,0.1,0.1
						c0.8,1.3,1.4,2.8,1.5,4.3c-1.4,2.8-3.8,4-6.3,4.6c-2.5,0.7-5,0.9-6.6,2.2c-2.5-1.8,1.7-2.7,0.8-5.8c0,0-1.1,1-2.3,1.9
						c-1.2,0.9-2.3,1.9-2.3,1.9c0.8-5.8-5.3-11.1,1.9-13l-5.8-1.5c-1.4-2-3.1-3.5-5-4.4c-1.8-0.9-3.8-1-5.5-0.2
						c-2.4-1.8-8.3,4.6-4.9,0.8c0,0-2.4,0.3-4.9,0.6c-1.2,0.2-2.5,0.3-3.4,0.4c-0.9,0.1-1.5,0.2-1.5,0.2l0.3-1.4
						c-2.1-0.8-4.4-0.9-6.9-0.8c-2.4,0-4.9,0.2-7.3,0.1c-2.5-0.1-4.8-0.6-7-1.9c-2.1-1.3-4.1-3.3-5.5-6.7c-3.2,0.4-6.8,1-10.5-2.4
						l1.1-5c-1,0.1-2-0.4-3-1.2s-1.9-1.8-2.8-2.7c-1.8-1.7-3.6-3-5.4-1c0.7-3.5,0.2-5.8-0.9-7.5c-0.6-0.8-1.4-1.5-2.2-2
						c-0.8-0.6-1.7-1-2.7-1.4s-2.1-0.7-3.1-1c-1.1-0.3-2-0.7-3-1c-1.9-0.7-3.6-1.5-4.4-2.8l-3.9,5.3c-1.5-1.3-3.3-2.2-5.4-2.8
						c-0.3-0.1-0.5-0.1-0.8-0.2s-0.5-0.2-0.8-0.2c-0.6-0.2-1.1-0.3-1.7-0.5c-1.2-0.3-2.5-0.6-3.9-0.9l-3.5,4.6
						c-0.8,0.1-1.6,0-2.2-0.2c-0.6-0.3-1.1-0.7-1.6-1.3c-0.9-1.1-1.6-2.6-2.2-4.3c-0.7-1.6-1.1-3.5-1.7-5.2
						c-0.3-0.8-0.7-1.7-1.1-2.4c-0.4-0.7-1-1.4-1.5-2c1.9-1.1,2.7,0.5,2.5,2.3c0.5-1.9,0.6-3.3,0.5-4.5s-0.5-2.1-1.2-2.8
						c-0.7-0.7-1.6-1.3-2.6-1.7c-0.3-0.1-0.5-0.2-0.8-0.3l-0.8-0.3c-0.5-0.2-1.1-0.4-1.7-0.7c-1.1-0.4-2.3-0.8-3.4-1.3
						c-1.1-0.5-2.2-1-2.9-1.8c-1.5-1.4-2.2-3.4-1-6.1c-1.4-0.3-2.1-0.8-2.3-1.5s0-1.5,0.4-2.4c0.1,0.1,0.2,0.2,0.5,0.3
						c0-0.2-0.1-0.5-0.3-0.7c0.5-1.2,1.2-2.4,1.7-3.6c-1,1.3-1.7,2.4-1.9,3.2c-0.7-1.2-2.4-2.8-4.4-4.2c0,0,1.4-0.8,2.7-1.6
						c1.4-0.8,2.7-1.6,2.7-1.6c-0.1-0.1-0.2-0.2-0.3-0.4c1.4-2.7-3.4-0.4-7.3,2.4c-1.4-0.6-2.9-1.1-4.6-1.3c1.1-0.6,1.8-1.2,2.3-1.7
						s0.7-0.9,0.8-1.3c0.1-0.7-0.5-1.3-1.1-1.9c-1.2-1.2-2.4-2.6,2.5-5.2c-2.8,0.1-4.3-2.3-6.7-4.6c-0.6-0.6-1.2-1.1-1.9-1.6
						s-1.4-1-2.3-1.4c-1.7-0.8-3.8-1.3-6.6-1.1c1.4-0.3,2-1.1,2.3,0.1c0.8-2.8,1.5-5.5-1.8-7.4c0,0,1.9-0.5,3.9-1
						c1.9-0.5,3.9-1,3.9-1s-2.8-1-5.6-2.2c-1.4-0.6-2.8-1.2-3.9-1.6c-1-0.5-1.7-0.8-1.7-0.8c4.7-3.9,7.5-5.2,13.7-2.3
						c-2.4-1.8-3.9-3.1-4.9-4.2c-0.5-0.5-0.8-1-1.1-1.4s-0.5-0.8-0.7-1.2c-0.8-1.5-1.7-2.8-6.2-6.6l5.1,0.6c-0.1-1.2-1.7-3-2.7-4.6
						c-1.1-1.6-1.6-3.1,0.6-3.6c2.5-1.1,4.2-3.3,5.5-6.1c1.1-2.9,2.2-6.2,3.2-10c2.4-7.3,5.7-15.4,12.9-19.2c-7.3-2.3-5.1-3-2.2-3.7
						c2.9-0.7,6.2-1.4,1.3-4.7c3.5,1.1,6.2,0.7,7.7,4.1c0.2-1.8,0.9-3.1,1.8-4.1c0.5-0.5,0.9-0.9,1.4-1.3s1-0.7,1.5-1.1
						c1.9-1.4,2.7-3.1,0.4-8c3.3,1.7,3.2,4.4,5.3,5.2c-0.3-0.9-1.1-3.6,1-2.8c2.1,0.8,1.7,2.7,2.3,4.4c0.9-1.3,1.1-2.8,0.7-4.5
						c-0.3-1.6-1.1-3.3-2.3-5.1c-2.3-3.6-6.1-7.4-9.7-11.1c1.6,0.1,2.8,0.1,3.7-0.1s1.5-0.6,1.8-1.2c0.6-1.2,0.1-3.4-1.2-6.8
						c3.4,1.4,7.3,2.5,4.9,6.6c0.6-0.4,1.7-1.1,3.2-1.9s3.1-1.9,4.5-3.1c2.9-2.3,5-5.2,2.5-8.5c0.9,0.6,2,0,2.7-0.8s1.2-1.9,1.2-2.6
						c0.8-0.5,1.4-0.9,2-1.3c0.3-0.2,0.6-0.4,0.9-0.5c0.1-0.1,0.3-0.2,0.4-0.2c0.2-0.1,0.3-0.2,0.5-0.3c1.3-0.7,2.5-1.3,3.5-1.9
						c1.1-0.6,2.2-1.3,3.4-2.1c0.6-0.4,1.3-0.9,2-1.4c0.8-0.5,1.6-1,2.5-1.6l-3.3,0.3c-2.4-4.3-1.6-5.5,0.8-6.2
						c1.2-0.3,2.7-0.6,4.3-1c0.8-0.2,1.6-0.4,2.4-0.7c0.8-0.3,1.6-0.6,2.2-1.1l0.9,0.7c2.9-0.3,5.2-0.7,7-1c0.9-0.2,1.7-0.3,2.3-0.5
						s1.3-0.3,1.8-0.4c2.1-0.6,2.6-1.1,3.1-1.7c0.5-0.5,1-1.1,3.2-1.5c1.1-0.2,2.7-0.5,5-0.7c2.2-0.3,5.1-0.6,9-0.9l-11.2-2.9
						c-5.1-1.9-6.2-3-4.8-3.5c1.3-0.6,5.5-0.7,9.8-0.9c4.5-0.2,9.7-0.5,13.7-1.2c4.1-0.7,6.5-1.7,5.6-3.1c0,0-2.2,0-4.5,0.1
						c-2.3,0-4.5,0-4.5,0c-2.6-1.8,8.5-1.4,20.5-1.6c6,0,12.1-0.1,17.1-0.4c5-0.2,9-0.6,10.3-1c2.6-0.3,2.5,1.1,3.3,2.1
						c5.3-1.2,6.7-1.9,6.4-2.4c-0.4-0.5-2.6-0.8-5.5-1c-5.7-0.5-13.8-1.2-13-3c4.2,0,8.6,0.6,12.7,0.9c4,0.3,7.5,0.3,9.2-0.9
						c3.5-0.4-1.2-2.6-4-4.3c-1.4-0.9-2.3-1.7-2-2.3c0.3-0.7,1.9-1.2,5.2-1.6c-2.4,0.2-4.9,0.3-7,0.3s-3.8-0.2-4.4-0.6
						c0.4-0.3,2.1-0.7,4.1-1.1s4.4-0.8,6.3-1.3c0.5-0.1,0.9-0.3,1.3-0.4c0.4-0.2,0.8-0.3,1.1-0.7c0.1-0.3,0-0.4,0-0.5
						s-0.1-0.2-0.2-0.3c-0.1-0.1-0.3-0.3-0.5-0.4c-0.9-0.4-2.8-0.7-6.5-0.9c0.7-0.2,1.6-0.2,2.5-0.2c-1.3-0.2-2.7-0.4-4.3-0.7
						c-1.7-0.3-3.5-0.6-5.2-0.9c-3.8-0.6-8.3-1.2-13.3-1.3c7.1-0.6,9.1-1.4,8.2-2.2c-0.4-0.4-1.6-0.9-3.2-1.3
						c-0.8-0.2-1.7-0.4-2.7-0.7c-1-0.2-2-0.5-3.1-0.7c-4.2-0.9-8.9-1.8-10.1-2.7c-1.3-0.9,0.8-2,10.1-3.2c0,0-0.7-0.4-1.7-1
						c-1.2-0.7-2.7-1.5-4.2-2.4c-0.4-0.2-0.8-0.4-1.2-0.7c-0.4-0.2-0.8-0.5-1.2-0.7c-0.8-0.5-1.5-0.9-2.1-1.3c-1.2-0.7-2-1.2-2-1.2
						l4.2-0.6c-0.2-0.4-0.7-0.8-1.1-1.1c-0.4-0.4-0.9-0.7-1.3-1c-0.9-0.6-1.9-1.1-3-1.6c-0.3-0.1-0.5-0.2-0.8-0.3s-0.7-0.2-1-0.3
						c-0.7-0.2-1.3-0.4-2-0.5c-1.4-0.3-2.8-0.5-4.2-0.7s-2.9-0.3-4.3-0.3c-0.7,0-1.4,0-2.2,0s-1.6,0-2.4,0.1
						c-3.2,0.1-6.4,0.3-9.5,0.6c-0.2-0.9,0.9-1.5,2.4-1.8c1.5-0.4,3.3-0.5,4.3-0.8c-0.8-0.6-1.4-1.2-2.2-1.7
						c-0.9-0.4-1.9-0.9-2.8-1.3c-1.8-0.8-3.6-1.5-5.3-2c-3.1-1.2-6.1-2-9.4-2.5c-0.9-0.1-1.6-0.3-2.4-0.4c-0.8-0.1-1.6-0.2-2.5-0.3
						c-1.7-0.2-3.6-0.3-5.6-0.3c-1.9,0-4-0.1-6.3-0.1c-2.2,0-4.6,0-7.2,0c0,0,1.1-1.2,2.2-2.5c1.1-1.3,2.1-2.5,2.1-2.5
						c-1.6,0.1-3.2-1-5.1-2.9c-0.9-1-1.8-2.2-2.8-3.6c-0.5-0.7-1.1-1.4-1.6-2.1l-0.4-0.6c-0.1-0.2-0.2-0.3-0.2-0.5
						c-0.2-0.3-0.3-0.6-0.5-0.9c-0.3-0.6-0.7-1.2-1-1.8c-0.2-0.3-0.4-0.6-0.5-0.9c-0.2-0.3-0.4-0.6-0.5-0.9c-0.6-1.1-1.2-2-2-2.9
						c-1.5-1.8-3.5-3-6.4-3.5c0.6-0.4,1.7-1.1,2.8-1.2c-1.5-0.3-2.8-1-3.6-2c-0.9-1-1.6-2.2-2-3.6c-0.4-1.4-0.7-2.8-0.8-4.3
						c-0.1-0.7-0.1-1.4-0.1-2.2c-0.1-0.7,0-1.4-0.1-2.1c-0.3-5.3-1-8.3-12.6-5.7c0,0-0.5-0.2-1.2-0.6c-0.7-0.4-1.7-0.9-2.7-1.5
						c-1.9-1.1-3.8-2.4-3.8-2.4c0.5,4.5-2,5.2-5,5c-3-0.1-6.5-1.1-7.7,1.6c-0.6-0.9-0.8-2.2-0.5-3.4c0.3-1.3,1-2.5,1.8-3.5
						c1.7-2,4-2.7,5.1-0.6l-1,1c3.1-0.4,4.7-1.3,5.5-2.6c0.4-0.6,0.6-1.3,0.8-2s0.2-1.5,0.2-2.2s0-1.5,0-2.2s0.2-1.4,0.4-2
						c0.5-1.2,1.5-2,3.6-2.1c-0.1-0.5-0.2-1-0.2-1.5v-1.5c0-1,0-2,0-3.1c0.2-2.1,0.4-4.1,0.9-6.1c0.9-4,2.5-7.9,4.3-11.5
						c3.7-7.3,8.5-13.7,12.7-20c0,0-2.3-0.9-4.5-1.7c-2.3-0.8-4.6-1.6-4.6-1.6s0.9-1.2,1.8-2.4c0.4-0.6,0.9-1.2,1.2-1.6
						c0.4-0.4,0.6-0.7,0.6-0.7c1.4,0,3.2,0.6,4.3,1.7c0.6,0.5,1,1.1,1.1,1.8c0.1,0.7-0.1,1.4-0.7,2.1c2.8,0.6,2.7-1.3,1.8-3.6
						c-0.4-1.2-1.1-2.4-1.7-3.5c-0.6-1.1-1.2-1.9-1.6-2.3c4-2,5.6,0.4,6.6,2.9s1.3,5.1,2,4.4l1.3-2.8l-1.3-0.2
						c-0.8-2.2-1.9-4-2.3-5.7c-0.2-0.8-0.3-1.7-0.1-2.5s0.7-1.7,1.6-2.5c3.6-0.9,5.3,2.9,6.4,2.3c0.5,0.5,0.9,0.4,1.5-1.1
						c0,0,1.4-1,2.8-2.1c1.5-1,2.9-1.9,2.9-1.9s-1.7-1-3.5-1.9c-1.8-1-3.6-1.9-3.6-1.9c0-2.5,1.5-3.6,1.9-4.5s-0.2-1.9-4.3-4
						c1.5,0.8,3.1,1.2,4.7,1.3c1.6,0.1,3-0.2,4.6-0.5c1.6-0.4,3-1.1,4.6-1.8c1.5-0.7,3-1.6,4.5-2.5s2.9-1.8,4.3-2.6
						c1.4-0.8,2.7-1.6,3.9-2.3c2.5-1.2,4.4-2,5.6-1.3c1-3.5,2.8-5.7,5-7.2c2.2-1.6,4.9-2.3,7.9-3c-1.9-1-5.7-8.7,0-9.4
						c1.8,8.6,4.6,9.6,8,10c0.8,0.1,1.7,0.1,2.6,0.2c0.9,0.1,1.8,0.3,2.8,0.6c1.9,0.7,3.7,2,5.4,4.8c-2.7-3.6,0.6-5,3.8-6.6
						c1.6-0.8,3.1-1.7,3.8-3c0.6-1.3,0.4-3.1-1.7-5.8c2.4,0.3,2.7,1.9,3,3.8c0.3,1.9,0.5,4.2,2.4,6c4.6-4.2,10.6-3.9,16.8-2.8
						c6.3,1.1,12.8,3,19.3,1.7c0.2-2.3-2.2-5.7,0.7-9.2c0,0,1.8,2.8,3.6,5.7c1.8,2.9,3.5,5.7,3.5,5.7c2.6-1.1,2.6-13.2,7.3-5.2
						c-0.6-1.9-1.6-4.9,0.2-5.6c6.7,2.9,13.4,4.1,20.3,4.5s14,0.1,21,0.2c14.1,0.2,28.3,1.9,40.5,14.2c-3.1-4.9-0.6-5,2.3-4.8
						c-1.7-1.3,0.8-5.6,0.9-8.7c0,0,2.6,2.5,5.2,5.1s5.1,5.1,5.1,5.1c3.4-8.2,12.4,1.4,14.9-6.5l-3.9,0.8c3.2-4.4,2.4-10,1.1-16
						s-3.2-12.5-1.9-18.6c-3.7,5-6.8,0.4-10.5-3.7s-8-7.6-13.7-0.4c-1.7-2.8,2.3-3.8,1.5-6.8c-3.1,5-6.1,5.7-11.1,2.7l0.8-1.2
						c-15.1-0.4-21-6.3-37.7-11.1l0.8,6.2c-3.6-1.1-4.2-3.1-5.8-4.7c-4.8,9,10.2,1.3,5.6,11.3c-1.9-6.4-8.3-7-14.6-7.6
						c-7.1-0.4-13.2-1-14.6-8.2c-5.8-0.2,1.5,7.2-4.3,6.9L309.8,2l-1.6,4.9c-3.7-0.9-5.6-5.7-5.8-9c0.9,0.4,2.7-0.9,3.7-1.1
						c-2.5-2.3-6-1.9-9.2-1.1c-3.1,0.8-5.9,2-6.8,1.3l5.8,2.3c-8,1.9-17,1.9-26.1,2.8c-9,0.9-18,2.9-25.2,8.2l1.7,2.6
						c-2.7,1.9-4.7,2.8-6.3,3.1c-1.6,0.3-3,0.2-4.3-0.1c-1.4-0.3-2.8-0.7-4.7-0.5c-1.9,0.1-4.2,0.6-7.3,2.2l0.3-0.8
						c-0.9,1.8-2.1,3.2-3.5,4.4c-1.4,1.2-3,2-4.8,2.4c1-2.1-1-3.2-2.9-4.3c-2-1.1-3.9-2.3-2.3-4.8c-5.5,5-6.6,6.8-7,8.8
						c-0.2,1-0.2,2.1-0.3,3.8c-0.2,1.7-0.5,4-1.4,7.3c0,0-0.9-0.9-1.9-1.8c-1-0.9-1.9-1.8-1.9-1.8c-0.5,2.6-0.4,4.4-1,6.1
						c-0.3,0.8-0.7,1.7-1.4,2.5s-1.6,1.7-2.9,2.8c1.4-3.1-0.4-4.2-2.2-5.5s-3.7-2.8-2.1-6.7c-4.4-0.6-7.6,0.3-10,2.1
						c-1.2,0.8-2.1,1.8-3,2.9c-0.8,1.1-1.5,2.2-2.2,3.2s-1.3,2-1.9,2.8c-0.7,0.8-1.4,1.5-2.2,1.9c-1.7,0.8-4,0.5-7.7-1.5
						c0.6,3.7,1.9,5.4,3.4,6s3.1,0,4.7-0.7c1.6-0.8,3-1.9,4-2.5s1.5-0.7,1.1,0.4c2.5,1,2.7,3.8,1.9,6.5c-0.8,2.8-2.6,5.3-4.7,6.1
						c-1.8,1.2-5.9-1.1-10.7-2.4c-2.4-0.7-5.1-1.2-7.6-0.9c-1.3,0.1-2.6,0.5-3.8,1c-1.2,0.6-2.4,1.3-3.4,2.5
						c0.9-0.8,0.2-1.6,1.2-2.4c-2.9,0.4-3.6,2.9-4.6,5.2c-1,2.4-2.2,4.7-6.2,5.1c2.1,3.8,0.9,5.2,0.1,6.5c-0.8,1.3-1.3,2.6,2.7,6
						c0,0,0.3-0.6,0.7-1.6c0.4-0.9,1-2.2,1.6-3.4c0.3-0.6,0.6-1.3,0.9-1.9c0.3-0.6,0.6-1.1,0.9-1.6c0.5-0.9,0.8-1.5,0.8-1.5
						c-1.1,3.2,0,7.9,0,12.1c0.1,4.3-0.6,8-5.6,10.6c-1.4-1.7-2.2-5.6-2.3-8.2c-2.1,0.4-2.4,1.9-2.8,3.4c-0.3,1.5-0.7,2.9-2.8,3.5
						c-4.3-3-2.9-6.2-0.9-9.9c1.1-1.8,2.4-3.7,3.2-5.8c0.9-2.1,1.5-4.3,1-7c-1.4,0-2.2,1-2.8,2.3c-0.3,0.6-0.5,1.4-0.7,2.1
						s-0.3,1.5-0.5,2.1c-0.6,2.6-1.4,4-4.9-0.6c4.3,6.1,2.4,8.4-0.2,11c-1.3,1.3-2.6,2.7-3.4,4.5c-0.4,0.9-0.6,2-0.5,3.2
						s0.5,2.6,1.3,4.1l-5.3-3.2c0.1,0.8,0.6,2.2,0.8,3.6c0.1,0.7,0.2,1.4,0.2,2.1s-0.1,1.3-0.4,1.9c0,0-1.4-1.8-2.8-3.7
						c-1.3-1.9-2.6-3.8-2.6-3.8c0.4,1.2,0.5,2.2,0.4,3.1s-0.3,1.8-0.8,2.6c-0.8,1.5-2.3,2.8-3.8,4.1c-1.5,1.3-3,2.6-4.2,4.1
						c-0.6,0.8-1,1.5-1.3,2.4c-0.2,0.9-0.3,1.8-0.1,2.8c1-3.7,2.2-5.5,3.2-6.3c1.1-0.8,2.1-0.6,3.3,0c2.2,1.1,4.7,3.2,7.8,1.2
						c0.3,2.4,0.2,4.1-0.2,5.6c-0.4,1.4-0.9,2.5-1.7,3.3c-1.6,1.6-4.1,2.3-6.7,3.1c-2.6,0.8-5.4,1.7-7.6,3.8
						c-0.6,0.5-1.1,1.1-1.6,1.8c-0.5,0.7-0.8,1.5-1.2,2.4c-0.6,1.8-1.1,4-1,6.7c-0.3-1.5,1.1-4.1,2.7-5.6c1.7-1.5,3.6-2,4.7,0.4
						c-0.9,1.8-2.2,3.9-3.6,5.9s-2.9,3.8-4.7,5c0,1.8,0.2,3.2,0.4,4.1c0.2,1,0.5,1.5,0.9,1.8c0.7,0.6,1.6,0.1,2.6-0.7
						c1.9-1.5,4.2-3.8,6-0.9c-3.8,2.1-3.1,3.9-1.1,5.7c2.1,1.8,5.4,3.7,6.7,6.4l-6.3,0.5c-0.7,3.9-0.1,6.2,1,7.4s2.8,1.4,4.4,1.6
						c1.6,0.2,3.2,0.3,4.3,1.2c0.5,0.5,0.9,1.1,1.1,2.1s0.1,2.2-0.1,4c0,0-0.6-0.2-1.5-0.5s-2.1-0.8-3.3-1.3c-2.4-1-4.8-2.1-4.8-2.1
						s0.9,1.7,1.8,3.4s1.9,3.3,1.9,3.3s-1.8,0.1-3.6,0.1c-1.8,0-3.7,0.1-3.7,0.1c1.8,1.7,3.1,3.1,4,4.4c1,1.3,1.6,2.4,2.1,3.7
						c0.8,2.5,1,5.1,1.5,9.2c1.7-1.7,4.5-2.5,7.1-2.2c2.7,0.3,5.2,1.6,6.6,4.4c-0.7,2.7-2.3,2.9-3.1,3.3c-0.8,0.4-0.9,1.1,1.7,4.9
						c-2.2,0.1-4.7,0.1-6.2-0.7s-2.2-2.4-0.4-5.5c-2,0.5-4.5-0.3-6.5,0.1c-0.4,1.6-0.4,3.2,0,4.8c0.4,1.5,1.2,2.9,2,4.2
						c0.4,0.7,0.9,1.3,1.3,1.9c0.5,0.6,0.9,1.1,1.4,1.6c0.9,1,1.7,1.9,2.1,2.7c-0.5-1.3-1.1-2.9-0.7-4.1c0,0,0.9,0.5,2.3,1.2
						s3.2,1.7,5,2.5c1.9,0.8,3.7,1.6,5,2.2c1.4,0.5,2.3,0.9,2.3,0.9c-0.7,3.1-3.2,2.9-5.7,2.6c1.1,0.9,2.5,1.4,4,1.9
						c0.7,0.3,1.5,0.6,2.3,1s1.5,0.9,2.3,1.6c-2.3,1.2-4.5,2.7-6.7,3.4c-2.3,0.8-4.7,0.8-7.5-1c0,0,0.8,0.5,2,1.2s2.8,1.6,4.4,2.5
						s3.2,1.7,4.4,2.3s2,1,2,1c-0.5,1.1-0.5,3.3-0.7,5.4c-0.1,2-0.4,3.8-1.7,3.8c0.8,1.9,2.5,3.3,4.6,4.3s4.8,1.8,7.3,2.5
						c1.1,0.2,2.3,0.4,3.4,0.7c0.6,0.1,1.1,0.3,1.6,0.5c0.3,0.1,0.5,0.2,0.8,0.3c0.1,0,0.1,0,0.1,0h0.1h0.2c0.8-0.1,1.4,0.3,1.1,1.2
						c0.8-0.6,1.8-1.1,2.8-1.3c0.5,1.1-0.2,2.7-0.2,3.6c0,0.5,0.2,0.8,1.1,0.8c0.8,0.1,2.3-0.1,5-0.6c0,0-2.3,1.2-4.8,2.2
						c-2.5,1.1-5.2,2-5.2,2c1.8-0.2,5.4-1.3,8.9-2.6c3.6-1.3,7.2-2.7,11.7-2.4c1.8,0.1,2.1,0.3,1.5,0.6s-2.2,0.7-4,1.1
						c-3.7,0.8-8.5,1.9-10.1,2.4c3.7-0.6,9.7-1.3,14-1.4c2.1-0.1,3.8,0,4.3,0.2s-0.1,0.6-2.8,1.2c-1.9,0.1-2.4,0-2.7-0.1
						C167.9,254.4,167.8,254.2,166.9,254.2z M183.2,260.7c-1.2-0.1-2.9-0.4-4.6-0.6c-1.1-0.2-1-0.2,3.3-0.1c7.6,0.4,9.2,0.6,8.3,0.6
						C189.3,260.7,185.9,260.7,183.2,260.7z M129.3,316.1c-0.8-2.3,1.4-3.1,4.6-3.1C133.2,314.5,131.8,315.6,129.3,316.1z
						 M273.9,537.2c-0.1,0.1-0.1,0.1-0.2,0.3C271.1,534.4,272,535.6,273.9,537.2z M280.1,541.4c0.9-0.7,1-1.6,0.9-2.5
						c-0.8,1.4-2.3,1.2-4,0.4C277.1,541,277.8,542.3,280.1,541.4z M182.9,91.8l-1.9-0.4c0.2-1.6,0.6-1.9,0.9-1.7
						C182.2,90.1,182.5,90.9,182.9,91.8z"/>
					<path class="st0" d="M133.5,299.1c1.1,0.4,2,1.1,2.9,1.9C136.2,299.8,135.3,298.9,133.5,299.1z"/>
					<path class="st0" d="M148.7,248.7L148.7,248.7c-0.3,0.1-0.6,0.4-0.9,0.6L148.7,248.7z"/>
					<path class="st0" d="M156.4,551c-0.9-1.7-1.1-3.1-0.9-4.5C154.5,547.8,154.4,549.3,156.4,551z"/>
					<path class="st0" d="M311.9,535.4c0,0-0.7,0.4-1.4,0.8c-0.4,0.2-0.7,0.4-1,0.5s-0.5,0.2-0.5,0.2c1.4-0.3,1.9,1.1,2.6,2.1
						C311.6,537.6,311.1,535.5,311.9,535.4z"/>
					<path class="st0" d="M350.8,565.3c0.3-1,1.3-0.6,1.6-1.6L351,561C348.5,562.3,347.5,565.3,350.8,565.3z"/>
					<path class="st0" d="M315.3,556.2c0.5,5.3,2.9,3.3,5.4,2.1c-0.2,0-0.3,0.1-0.5,0.1C320,550.8,317.9,553.6,315.3,556.2z"/>
					<path class="st0" d="M321.2,557.9c0.8-0.4,1.5-0.6,2.4-0.5C323.4,554.5,322.6,557,321.2,557.9z"/>
					<path class="st0" d="M289.2,539.7c1.1,1.6,2.2-6.4,2.5-4.2c1.4-3.2-1.2-1.6-3.2,0.5S285.1,540.7,289.2,539.7z"/>
					<path class="st0" d="M318.7,573.3c0,0-0.4-1.6-0.8-3.2c-0.4-1.6-0.8-3.2-0.8-3.2s-0.3,1.3-0.7,2.7c-0.4,1.3-0.7,2.7-0.7,2.7
						s0.7,0.3,1.5,0.6C318,573.1,318.7,573.3,318.7,573.3z"/>
					<path class="st0" d="M294.1,567.3c0,0,1.2,0.6,2.4,1.3c1.2,0.6,2.4,1.2,2.4,1.2c0.1-1.1,0.8-1.6,1.6-2.1
						C297.4,567.2,294.3,565.4,294.1,567.3z"/>
					<path class="st0" d="M300.4,567.7c1.6,0.3,3.1,0.3,4-0.7C303.6,567,301.8,567.1,300.4,567.7z"/>
					<path class="st0" d="M311.7,575.6c0,0-0.4-0.3-0.8-0.7c-0.4-0.3-0.8-0.7-0.8-0.7s-0.9-0.1-1.8-0.3c-0.9-0.1-1.8-0.3-1.8-0.3
						s1.3,0.5,2.6,1C310.4,575.1,311.7,575.6,311.7,575.6z"/>
					<path class="st0" d="M241,553.8c0,0-1.5,0.1-2.9,0.1c-1.5,0-2.9,0.1-2.9,0.1c-1.2,2-0.1,3.7,2.1,3.5
						C239,556.4,241.3,556.1,241,553.8z"/>
					<path class="st0" d="M253,575.5c-1.2-1.7-0.9-3.1-1.2-5.4l-2.2,7.8L253,575.5z"/>
					<path class="st0" d="M236.2,572.9c-1.2,2-10,3.8-2.7,5.4C234.7,576.4,240.8,576.2,236.2,572.9z"/>
					<path class="st0" d="M161.2,527.4l1.2,0.8l7.6-10.9c0,0-2.2,2.5-4.4,5.1C163.5,524.9,161.2,527.4,161.2,527.4z"/>
					<path class="st0" d="M84.9,480.5c0.1,4.5,2.2,4.2,4.1,3.7c1.9-0.4,3.7-1,3.6,3.2c3.6,0.3,0.3-6.8,3.6-6.1
						c-2.5-1.5-3.5-3.1-4.8-3.6C90.1,477.2,88.5,477.7,84.9,480.5z"/>
					<path class="st0" d="M96.2,481.2c0.8,0.5,1.7,0.9,2.9,1.3C97.8,481.7,96.9,481.4,96.2,481.2z"/>
					<polygon class="st0" points="410.3,70.9 414,74.3 412.1,69.5 					"/>
					<path class="st0" d="M419.8,62.6l-0.5,8.5l3.8-7.1C422.1,64.2,420.2,64.6,419.8,62.6z"/>
					<path class="st0" d="M146.5,259.2l3.7,0.4c4.2,0.4,4.7,0.3,5.7,0.3c0,0-2.4-0.1-4.8-0.3C148.8,259.4,146.5,259.2,146.5,259.2z"
						/>
					<polygon class="st0" points="163.2,257.5 163,257.5 180.1,256.8 					"/>
					<path class="st0" d="M139.5,258c-0.4,0.1,2.1-0.4,1.7-0.3c-1.1,0.2,1.9-0.5,3.3-0.9C146,256.4,146,256.3,139.5,258z"/>
				</g>
			</g>
		</g>
	</g>
</g>
</svg>
